Montserrat-BoldItalic.ufo
<glyph name="one" format="2">
  <advance width="418"/>
  <unicode hex="0031"/>
  <outline>
    <contour>
      <point x="70" y="0" type="line"/>
      <point x="306" y="0" type="line"/>
      <point x="446" y="700" type="line"/>
      <point x="90" y="700" type="line"/>
      <point x="54" y="522" type="line"/>
      <point x="275" y="522" type="line"/>
      <point x="193" y="615" type="line"/>
    </contour>
  </outline>
</glyph>
<glyph name="nine" format="2">
  <advance width="661"/>
  <unicode hex="0039"/>
  <outline>
    <contour>
      <point x="359" y="716" type="curve" smooth="yes"/>
      <point x="180" y="716"/>
      <point x="51" y="612"/>
      <point x="51" y="449" type="curve" smooth="yes"/>
      <point x="51" y="317"/>
      <point x="159" y="247"/>
      <point x="280" y="247" type="curve" smooth="yes"/>
      <point x="358" y="247"/>
      <point x="418" y="285"/>
      <point x="463" y="363" type="curve"/>
      <point x="414" y="392" type="line"/>
      <point x="413" y="372"/>
      <point x="412" y="353"/>
      <point x="408" y="333" type="curve" smooth="yes"/>
      <point x="388" y="233"/>
      <point x="332" y="167"/>
      <point x="221" y="167" type="curve" smooth="yes"/>
      <point x="173" y="167"/>
      <point x="132" y="176"/>
      <point x="95" y="201" type="curve"/>
      <point x="-12" y="39" type="line"/>
      <point x="36" y="4"/>
      <point x="121" y="-16"/>
      <point x="208" y="-16" type="curve" smooth="yes"/>
      <point x="523" y="-16"/>
      <point x="659" y="227"/>
      <point x="659" y="432" type="curve" smooth="yes"/>
      <point x="659" y="620"/>
      <point x="534" y="716"/>
    </contour>
    <contour>
      <point x="360" y="553" type="curve" smooth="yes"/>
      <point x="403" y="553"/>
      <point x="426" y="526"/>
      <point x="426" y="488" type="curve" smooth="yes"/>
      <point x="426" y="441"/>
      <point x="392" y="410"/>
      <point x="348" y="410" type="curve" smooth="yes"/>
      <point x="307" y="410"/>
      <point x="282" y="434"/>
      <point x="282" y="473" type="curve" smooth="yes"/>
      <point x="282" y="523"/>
      <point x="318" y="553"/>
    </contour>
  </outline>
</glyph>
<glyph name="L" format="2">
  <advance width="617"/>
  <unicode hex="004C"/>
  <guideline x="426" y="193" angle="90"/>
  <anchor x="290" y="0" name="bottom"/>
  <anchor x="200" y="400" name="center"/>
  <anchor x="517" y="441" name="dot"/>
  <anchor x="260" y="700" name="top"/>
  <anchor x="508" y="700" name="topright"/>
  <outline>
    <contour>
      <point x="2" y="0" type="line"/>
      <point x="554" y="0" type="line"/>
      <point x="591" y="183" type="line"/>
      <point x="275" y="183" type="line"/>
      <point x="378" y="700" type="line"/>
      <point x="142" y="700" type="line"/>
    </contour>
  </outline>
</glyph>
<glyph name="c" format="2">
  <advance width="614"/>
  <unicode hex="0063"/>
  <anchor x="292" y="0" name="bottom"/>
  <anchor x="377" y="547" name="top"/>
  <outline>
    <contour>
      <point x="317" y="-10" type="curve" smooth="yes"/>
      <point x="446" y="-10"/>
      <point x="547" y="46"/>
      <point x="601" y="142" type="curve"/>
      <point x="436" y="238" type="line"/>
      <point x="410" y="187"/>
      <point x="378" y="168"/>
      <point x="334" y="168" type="curve" smooth="yes"/>
      <point x="278" y="168"/>
      <point x="248" y="205"/>
      <point x="248" y="257" type="curve" smooth="yes"/>
      <point x="248" y="330"/>
      <point x="292" y="379"/>
      <point x="353" y="379" type="curve" smooth="yes"/>
      <point x="391" y="379"/>
      <point x="424" y="360"/>
      <point x="443" y="309" type="curve"/>
      <point x="635" y="397" type="line"/>
      <point x="596" y="496"/>
      <point x="494" y="557"/>
      <point x="364" y="557" type="curve" smooth="yes"/>
      <point x="162" y="557"/>
      <point x="19" y="423"/>
      <point x="19" y="243" type="curve" smooth="yes"/>
      <point x="19" y="90"/>
      <point x="137" y="-10"/>
    </contour>
  </outline>
</glyph>
<glyph name="f" format="2">
  <advance width="426"/>
  <unicode hex="0066"/>
  <outline>
    <contour>
      <point x="20" y="0" type="line"/>
      <point x="246" y="0" type="line"/>
      <point x="326" y="399" type="line"/>
      <point x="337" y="488" type="line"/>
      <point x="343" y="518" type="line" smooth="yes"/>
      <point x="352" y="562"/>
      <point x="370" y="581"/>
      <point x="406" y="581" type="curve" smooth="yes"/>
      <point x="425" y="581"/>
      <point x="442" y="576"/>
      <point x="457" y="568" type="curve"/>
      <point x="543" y="725" type="line"/>
      <point x="507" y="743"/>
      <point x="458" y="752"/>
      <point x="404" y="752" type="curve" smooth="yes"/>
      <point x="245" y="752"/>
      <point x="152" y="661"/>
      <point x="126" y="530" type="curve" smooth="yes"/>
    </contour>
    <contour>
      <point x="15" y="352" type="line"/>
      <point x="428" y="352" type="line"/>
      <point x="461" y="517" type="line"/>
      <point x="48" y="517" type="line"/>
    </contour>
  </outline>
</glyph>
<glyph name="y" format="2">
  <advance width="644"/>
  <unicode hex="0079"/>
  <guideline x="377" y="325" angle="68.1541"/>
  <anchor x="473" y="0" name="bottom"/>
  <anchor x="368" y="547" name="top"/>
  <outline>
    <contour>
      <point x="85" y="-204" type="curve" smooth="yes"/>
      <point x="211" y="-204"/>
      <point x="288" y="-161"/>
      <point x="378" y="-11" type="curve" smooth="yes"/>
      <point x="714" y="547" type="line"/>
      <point x="493" y="547" type="line"/>
      <point x="232" y="101" type="line"/>
      <point x="215" y="79" type="line"/>
      <point x="180" y="21" type="line" smooth="yes"/>
      <point x="160" y="-12"/>
      <point x="140" y="-29"/>
      <point x="104" y="-29" type="curve" smooth="yes"/>
      <point x="73" y="-29"/>
      <point x="44" y="-17"/>
      <point x="22" y="0" type="curve"/>
      <point x="-76" y="-157" type="line"/>
      <point x="-40" y="-185"/>
      <point x="25" y="-204"/>
    </contour>
    <contour>
      <point x="164" y="-25" type="line"/>
      <point x="346" y="121" type="line"/>
      <point x="265" y="547" type="line"/>
      <point x="40" y="547" type="line"/>
    </contour>
  </outline>
</glyph>
<glyph name="section" format="2">
  <advance width="549"/>
  <unicode hex="00A7"/>
  <outline>
    <contour>
      <point x="368" y="145" type="line"/>
      <point x="466" y="178"/>
      <point x="535" y="240"/>
      <point x="535" y="340" type="curve" smooth="yes"/>
      <point x="535" y="509"/>
      <point x="286" y="467"/>
      <point x="286" y="521" type="curve" smooth="yes"/>
      <point x="286" y="538"/>
      <point x="304" y="556"/>
      <point x="362" y="556" type="curve" smooth="yes"/>
      <point x="420" y="556"/>
      <point x="474" y="547"/>
      <point x="527" y="516" type="curve"/>
      <point x="609" y="665" type="line"/>
      <point x="549" y="697"/>
      <point x="457" y="710"/>
      <point x="395" y="710" type="curve" smooth="yes"/>
      <point x="221" y="710"/>
      <point x="85" y="640"/>
      <point x="85" y="491" type="curve" smooth="yes"/>
      <point x="85" y="316"/>
      <point x="337" y="368"/>
      <point x="337" y="300" type="curve" smooth="yes"/>
      <point x="337" y="281"/>
      <point x="320" y="260"/>
      <point x="281" y="247" type="curve"/>
    </contour>
    <contour>
      <point x="181" y="-109" type="curve" smooth="yes"/>
      <point x="344" y="-109"/>
      <point x="471" y="-33"/>
      <point x="471" y="111" type="curve" smooth="yes"/>
      <point x="471" y="283"/>
      <point x="220" y="236"/>
      <point x="220" y="300" type="curve" smooth="yes"/>
      <point x="220" y="319"/>
      <point x="232" y="340"/>
      <point x="275" y="354" type="curve"/>
      <point x="188" y="456" type="line"/>
      <point x="86" y="422"/>
      <point x="20" y="355"/>
      <point x="20" y="260" type="curve" smooth="yes"/>
      <point x="20" y="97"/>
      <point x="270" y="134"/>
      <point x="270" y="80" type="curve" smooth="yes"/>
      <point x="270" y="62"/>
      <point x="252" y="45"/>
      <point x="194" y="45" type="curve" smooth="yes"/>
      <point x="146" y="45"/>
      <point x="94" y="58"/>
      <point x="37" y="96" type="curve"/>
      <point x="-45" y="-53" type="line"/>
      <point x="9" y="-92"/>
      <point x="99" y="-109"/>
    </contour>
  </outline>
</glyph>
<glyph name="idotless" format="2">
  <advance width="325"/>
  <unicode hex="0131"/>
  <anchor x="108" y="0" name="bottom"/>
  <anchor x="220" y="0" name="ogonek"/>
  <anchor x="217" y="547" name="top"/>
  <outline>
    <contour>
      <point x="-5" y="0" type="line"/>
      <point x="220" y="0" type="line"/>
      <point x="329" y="547" type="line"/>
      <point x="104" y="547" type="line"/>
    </contour>
  </outline>
</glyph>
<glyph name="IJ" format="2">
  <advance width="729"/>
  <unicode hex="0132"/>
  <anchor x="254" y="700" name="top"/>
  <outline>
    <contour>
      <point x="297" y="-16" type="curve" smooth="yes"/>
      <point x="508" y="-16"/>
      <point x="640" y="87"/>
      <point x="684" y="305" type="curve" smooth="yes"/>
      <point x="763" y="700" type="line"/>
      <point x="527" y="700" type="line"/>
      <point x="450" y="313" type="line" smooth="yes"/>
      <point x="430" y="211"/>
      <point x="390" y="172"/>
      <point x="307" y="172" type="curve" smooth="yes"/>
      <point x="240" y="172"/>
      <point x="170" y="194"/>
      <point x="106" y="238" type="curve"/>
      <point x="-8" y="69" type="line"/>
      <point x="66" y="17"/>
      <point x="163" y="-16"/>
    </contour>
    <contour>
      <point x="63" y="336" type="line"/>
      <point x="299" y="336" type="line"/>
      <point x="372" y="700" type="line"/>
      <point x="136" y="700" type="line"/>
    </contour>
  </outline>
</glyph>
<glyph name="ringhalfleft" format="2">
  <advance width="600"/>
  <unicode hex="02BF"/>
  <outline>
    <contour>
      <point x="400" y="777" type="curve"/>
      <point x="416" y="856" type="line"/>
      <point x="407" y="858"/>
      <point x="399" y="858"/>
      <point x="390" y="858" type="curve" smooth="yes"/>
      <point x="311" y="858"/>
      <point x="250" y="799"/>
      <point x="250" y="724" type="curve" smooth="yes"/>
      <point x="250" y="658"/>
      <point x="298" y="604"/>
      <point x="363" y="592" type="curve"/>
      <point x="379" y="671" type="line"/>
      <point x="354" y="676"/>
      <point x="336" y="696"/>
      <point x="336" y="724" type="curve" smooth="yes"/>
      <point x="336" y="756"/>
      <point x="360" y="778"/>
      <point x="390" y="778" type="curve" smooth="yes"/>
      <point x="393" y="778"/>
      <point x="397" y="778"/>
    </contour>
  </outline>
</glyph>
<glyph name="brevecomb" format="2">
  <unicode hex="0306"/>
  <anchor x="355" y="547" name="_top"/>
  <anchor x="396" y="750" name="top"/>
  <outline>
    <contour>
      <point x="376" y="597" type="curve" smooth="yes"/>
      <point x="499" y="597"/>
      <point x="587" y="662"/>
      <point x="608" y="767" type="curve"/>
      <point x="469" y="767" type="line"/>
      <point x="460" y="730"/>
      <point x="432" y="706"/>
      <point x="389" y="706" type="curve" smooth="yes"/>
      <point x="347" y="706"/>
      <point x="320" y="730"/>
      <point x="321" y="767" type="curve"/>
      <point x="190" y="767" type="line"/>
      <point x="179" y="662"/>
      <point x="260" y="597"/>
    </contour>
  </outline>
</glyph>
<glyph name="dieresisbelowcomb" format="2">
  <unicode hex="0324"/>
  <anchor x="246" y="0" name="_bottom"/>
  <anchor x="210" y="-181" name="bottom"/>
  <outline>
    <contour>
      <point x="319" y="-217" type="curve" smooth="yes"/>
      <point x="370" y="-217"/>
      <point x="411" y="-183"/>
      <point x="411" y="-124" type="curve" smooth="yes"/>
      <point x="411" y="-81"/>
      <point x="376" y="-50"/>
      <point x="332" y="-50" type="curve" smooth="yes"/>
      <point x="283" y="-50"/>
      <point x="239" y="-88"/>
      <point x="239" y="-141" type="curve" smooth="yes"/>
      <point x="239" y="-185"/>
      <point x="271" y="-217"/>
    </contour>
    <contour>
      <point x="106" y="-217" type="curve" smooth="yes"/>
      <point x="157" y="-217"/>
      <point x="198" y="-183"/>
      <point x="198" y="-124" type="curve" smooth="yes"/>
      <point x="198" y="-81"/>
      <point x="163" y="-50"/>
      <point x="119" y="-50" type="curve" smooth="yes"/>
      <point x="70" y="-50"/>
      <point x="26" y="-88"/>
      <point x="26" y="-141" type="curve" smooth="yes"/>
      <point x="26" y="-185"/>
      <point x="58" y="-217"/>
    </contour>
  </outline>
</glyph>
<glyph name="mu" format="2">
  <advance width="700"/>
  <unicode hex="03BC"/>
  <outline>
    <contour>
      <point x="-43" y="-194" type="line"/>
      <point x="183" y="-194" type="line"/>
      <point x="243" y="105" type="line"/>
      <point x="182" y="43" type="line"/>
      <point x="203" y="10"/>
      <point x="237" y="-10"/>
      <point x="284" y="-10" type="curve" smooth="yes"/>
      <point x="348" y="-10"/>
      <point x="421" y="28"/>
      <point x="450" y="138" type="curve"/>
      <point x="431" y="152" type="line"/>
      <point x="401" y="0" type="line"/>
      <point x="596" y="0" type="line"/>
      <point x="705" y="547" type="line"/>
      <point x="479" y="547" type="line"/>
      <point x="426" y="284" type="line" smooth="yes"/>
      <point x="412" y="213"/>
      <point x="377" y="180"/>
      <point x="329" y="180" type="curve" smooth="yes"/>
      <point x="284" y="180"/>
      <point x="263" y="209"/>
      <point x="276" y="272" type="curve" smooth="yes"/>
      <point x="331" y="547" type="line"/>
      <point x="105" y="547" type="line"/>
    </contour>
  </outline>
</glyph>
<glyph name="Dzhe-cy" format="2">
  <advance width="810"/>
  <unicode hex="040F"/>
  <outline>
    <contour>
      <point x="833" y="700" type="line"/>
      <point x="601" y="700" type="line"/>
      <point x="498" y="183" type="line"/>
      <point x="276" y="183" type="line"/>
      <point x="379" y="700" type="line"/>
      <point x="147" y="700" type="line"/>
      <point x="7" y="0" type="line"/>
      <point x="242" y="0" type="line"/>
      <point x="215" y="-137" type="line"/>
      <point x="431" y="-137" type="line"/>
      <point x="458" y="0" type="line"/>
      <point x="693" y="0" type="line"/>
    </contour>
  </outline>
</glyph>
<glyph name="Ge-cy" format="2">
  <advance width="611"/>
  <unicode hex="0413"/>
  <anchor x="7" y="0" name="_bottomleft"/>
  <anchor x="7" y="0" name="bottomleft"/>
  <anchor x="481" y="0" name="bottomright"/>
  <anchor x="403" y="700" name="top"/>
  <outline>
    <contour>
      <point x="7" y="0" type="line"/>
      <point x="239" y="0" type="line"/>
      <point x="350" y="568" type="line"/>
      <point x="289" y="517" type="line"/>
      <point x="644" y="517" type="line"/>
      <point x="680" y="700" type="line"/>
      <point x="147" y="700" type="line"/>
    </contour>
  </outline>
</glyph>
<glyph name="Ii-cy" format="2">
  <advance width="819"/>
  <unicode hex="0418"/>
  <anchor x="470" y="0" name="bottomleft"/>
  <anchor x="738" y="0" name="bottomright"/>
  <anchor x="495" y="700" name="top"/>
  <outline>
    <contour>
      <point x="7" y="0" type="line"/>
      <point x="233" y="0" type="line"/>
      <point x="546" y="363" type="line"/>
      <point x="470" y="0" type="line"/>
      <point x="702" y="0" type="line"/>
      <point x="842" y="700" type="line"/>
      <point x="617" y="700" type="line"/>
      <point x="304" y="336" type="line"/>
      <point x="379" y="700" type="line"/>
      <point x="147" y="700" type="line"/>
    </contour>
  </outline>
</glyph>
<glyph name="El-cy" format="2">
  <advance width="807"/>
  <unicode hex="041B"/>
  <anchor x="458" y="0" name="#exit"/>
  <anchor x="458" y="0" name="bottomleft"/>
  <outline>
    <contour>
      <point x="56" y="-16" type="curve" smooth="yes"/>
      <point x="228" y="-16"/>
      <point x="303" y="79"/>
      <point x="371" y="380" type="curve" smooth="yes"/>
      <point x="414" y="570" type="line"/>
      <point x="357" y="517" type="line"/>
      <point x="612" y="517" type="line"/>
      <point x="571" y="567" type="line"/>
      <point x="458" y="0" type="line"/>
      <point x="690" y="0" type="line"/>
      <point x="830" y="700" type="line"/>
      <point x="239" y="700" type="line"/>
      <point x="175" y="427" type="line" smooth="yes"/>
      <point x="132" y="244"/>
      <point x="97" y="183"/>
      <point x="34" y="183" type="curve" smooth="yes"/>
      <point x="26" y="183"/>
      <point x="17" y="184"/>
      <point x="9" y="186" type="curve"/>
      <point x="-41" y="-3" type="line"/>
      <point x="-12" y="-12"/>
      <point x="20" y="-16"/>
    </contour>
  </outline>
</glyph>
<glyph name="sha-cy" format="2">
  <advance width="1005"/>
  <unicode hex="0448"/>
  <anchor x="669" y="0" name="bottomleft"/>
  <outline>
    <contour>
      <point x="424" y="177" type="line"/>
      <point x="212" y="177" type="line"/>
      <point x="252" y="128" type="line"/>
      <point x="333" y="547" type="line"/>
      <point x="108" y="547" type="line"/>
      <point x="-2" y="0" type="line"/>
      <point x="897" y="0" type="line"/>
      <point x="1007" y="547" type="line"/>
      <point x="783" y="547" type="line"/>
      <point x="702" y="128" type="line"/>
      <point x="761" y="177" type="line"/>
      <point x="549" y="177" type="line"/>
      <point x="590" y="128" type="line"/>
      <point x="671" y="547" type="line"/>
      <point x="446" y="547" type="line"/>
      <point x="365" y="128" type="line"/>
    </contour>
  </outline>
</glyph>
<glyph name="iu-cy" format="2">
  <advance width="940"/>
  <unicode hex="044E"/>
  <outline>
    <contour>
      <point x="-1" y="0" type="line"/>
      <point x="224" y="0" type="line"/>
      <point x="261" y="184" type="line"/>
      <point x="417" y="184" type="line"/>
      <point x="454" y="371" type="line"/>
      <point x="298" y="371" type="line"/>
      <point x="333" y="547" type="line"/>
      <point x="108" y="547" type="line"/>
    </contour>
    <contour>
      <point x="589" y="-10" type="curve" smooth="yes"/>
      <point x="783" y="-10"/>
      <point x="922" y="125"/>
      <point x="922" y="306" type="curve" smooth="yes"/>
      <point x="922" y="458"/>
      <point x="810" y="557"/>
      <point x="634" y="557" type="curve" smooth="yes"/>
      <point x="439" y="557"/>
      <point x="300" y="422"/>
      <point x="300" y="241" type="curve" smooth="yes"/>
      <point x="300" y="89"/>
      <point x="412" y="-10"/>
    </contour>
    <contour>
      <point x="603" y="168" type="curve" smooth="yes"/>
      <point x="556" y="168"/>
      <point x="529" y="203"/>
      <point x="529" y="253" type="curve" smooth="yes"/>
      <point x="529" y="329"/>
      <point x="566" y="379"/>
      <point x="620" y="379" type="curve" smooth="yes"/>
      <point x="666" y="379"/>
      <point x="693" y="344"/>
      <point x="693" y="294" type="curve" smooth="yes"/>
      <point x="693" y="218"/>
      <point x="657" y="168"/>
    </contour>
  </outline>
</glyph>
<glyph name="yusbig-cy" format="2">
  <advance width="853"/>
  <unicode hex="046B"/>
  <outline>
    <contour>
      <point x="-56" y="0" type="line"/>
      <point x="162" y="0" type="line"/>
      <point x="182" y="52" type="line" smooth="yes"/>
      <point x="219" y="148"/>
      <point x="251" y="176"/>
      <point x="288" y="176" type="curve" smooth="yes"/>
      <point x="309" y="176" type="line"/>
      <point x="274" y="0" type="line"/>
      <point x="467" y="0" type="line"/>
      <point x="502" y="176" type="line"/>
      <point x="525" y="176" type="line" smooth="yes"/>
      <point x="562" y="176"/>
      <point x="579" y="148"/>
      <point x="579" y="52" type="curve" smooth="yes"/>
      <point x="579" y="0" type="line"/>
      <point x="799" y="0" type="line"/>
      <point x="786" y="97" type="line" smooth="yes"/>
      <point x="763" y="268"/>
      <point x="706" y="312"/>
      <point x="607" y="312" type="curve" smooth="yes"/>
      <point x="260" y="312" type="line" smooth="yes"/>
      <point x="161" y="312"/>
      <point x="85" y="268"/>
      <point x="-5" y="97" type="curve" smooth="yes"/>
    </contour>
    <contour>
      <point x="433" y="314" type="line"/>
      <point x="347" y="412" type="line"/>
      <point x="560" y="412" type="line"/>
    </contour>
    <contour>
      <point x="249" y="270" type="line"/>
      <point x="598" y="270" type="line"/>
      <point x="790" y="425" type="line"/>
      <point x="814" y="547" type="line"/>
      <point x="145" y="547" type="line"/>
      <point x="121" y="425" type="line"/>
    </contour>
  </outline>
</glyph>
<glyph name="izhitsa-cy" format="2">
  <advance width="710"/>
  <unicode hex="0475"/>
  <outline>
    <contour>
      <point x="190" y="0" type="line"/>
      <point x="413" y="0" type="line"/>
      <point x="587" y="296" type="line" smooth="yes"/>
      <point x="620" y="353"/>
      <point x="636" y="360"/>
      <point x="696" y="345" type="curve"/>
      <point x="756" y="548" type="line"/>
      <point x="603" y="585"/>
      <point x="506" y="552"/>
      <point x="446" y="443" type="curve" smooth="yes"/>
      <point x="259" y="104" type="line"/>
      <point x="376" y="104" type="line"/>
      <point x="277" y="547" type="line"/>
      <point x="51" y="547" type="line"/>
    </contour>
  </outline>
</glyph>
<glyph name="Semisoftsign-cy" format="2">
  <advance width="770"/>
  <unicode hex="048C"/>
  <outline>
    <contour>
      <point x="43" y="0" type="line"/>
      <point x="393" y="0" type="line" smooth="yes"/>
      <point x="609" y="0"/>
      <point x="748" y="106"/>
      <point x="748" y="282" type="curve" smooth="yes"/>
      <point x="748" y="412"/>
      <point x="671" y="475"/>
      <point x="515" y="475" type="curve" smooth="yes"/>
      <point x="370" y="475" type="line"/>
      <point x="424" y="742" type="line"/>
      <point x="192" y="742" type="line"/>
    </contour>
    <contour>
      <point x="308" y="165" type="line"/>
      <point x="337" y="310" type="line"/>
      <point x="441" y="310" type="line" smooth="yes"/>
      <point x="486" y="310"/>
      <point x="506" y="293"/>
      <point x="506" y="255" type="curve" smooth="yes"/>
      <point x="506" y="198"/>
      <point x="465" y="165"/>
      <point x="407" y="165" type="curve" smooth="yes"/>
    </contour>
    <contour>
      <point x="65" y="536" type="line"/>
      <point x="592" y="536" type="line"/>
      <point x="618" y="666" type="line"/>
      <point x="91" y="666" type="line"/>
    </contour>
  </outline>
</glyph>
<glyph name="ertick-cy" format="2">
  <advance width="704"/>
  <unicode hex="048F"/>
  <anchor x="363" y="0" name="bottom"/>
  <anchor x="420" y="547" name="top"/>
  <outline>
    <contour>
      <point x="577" y="-12" type="line"/>
      <point x="413" y="281" type="line"/>
      <point x="332" y="227" type="line"/>
      <point x="502" y="-62" type="line"/>
    </contour>
    <component base="p" xOffset="4"/>
  </outline>
</glyph>
<glyph name="Ghemiddlehook-cy" format="2">
  <advance width="710"/>
  <unicode hex="0494"/>
  <outline>
    <contour>
      <point x="7" y="0" type="line"/>
      <point x="239" y="0" type="line"/>
      <point x="350" y="568" type="line"/>
      <point x="289" y="517" type="line"/>
      <point x="665" y="517" type="line"/>
      <point x="701" y="700" type="line"/>
      <point x="147" y="700" type="line"/>
    </contour>
    <contour>
      <point x="237" y="-153" type="line"/>
      <point x="466" y="-198"/>
      <point x="666" y="-45"/>
      <point x="666" y="182" type="curve" smooth="yes"/>
      <point x="666" y="371"/>
      <point x="492" y="431"/>
      <point x="282" y="380" type="curve"/>
      <point x="264" y="202" type="line"/>
      <point x="349" y="235"/>
      <point x="434" y="237"/>
      <point x="434" y="163" type="curve" smooth="yes"/>
      <point x="434" y="82"/>
      <point x="369" y="-3"/>
      <point x="290" y="17" type="curve"/>
    </contour>
  </outline>
</glyph>
<glyph name="ghemiddlehook-cy" format="2">
  <advance width="661"/>
  <unicode hex="0495"/>
  <guideline x="109" y="-204" angle="0"/>
  <outline>
    <contour>
      <point x="-1" y="0" type="line"/>
      <point x="224" y="0" type="line"/>
      <point x="308" y="419" type="line"/>
      <point x="249" y="371" type="line"/>
      <point x="561" y="371" type="line"/>
      <point x="596" y="547" type="line"/>
      <point x="108" y="547" type="line"/>
    </contour>
    <contour>
      <point x="182" y="-193" type="line"/>
      <point x="414" y="-245"/>
      <point x="614" y="-99"/>
      <point x="614" y="101" type="curve" smooth="yes"/>
      <point x="614" y="276"/>
      <point x="461" y="344"/>
      <point x="231" y="288" type="curve"/>
      <point x="202" y="111" type="line"/>
      <point x="306" y="151"/>
      <point x="377" y="137"/>
      <point x="377" y="66" type="curve" smooth="yes"/>
      <point x="377" y="2"/>
      <point x="319" y="-34"/>
      <point x="244" y="-17" type="curve"/>
    </contour>
  </outline>
</glyph>
<glyph name="Kastroke-cy" format="2">
  <advance width="821"/>
  <unicode hex="049E"/>
  <anchor x="504" y="0" name="bottomleft"/>
  <anchor x="754" y="0" name="bottomright"/>
  <anchor x="533" y="700" name="top"/>
  <outline>
    <contour>
      <point x="65" y="542" type="line"/>
      <point x="472" y="542" type="line"/>
      <point x="492" y="642" type="line"/>
      <point x="85" y="642" type="line"/>
    </contour>
    <component base="Ka-cy" xOffset="48"/>
  </outline>
</glyph>
<glyph name="kastroke-cy" format="2">
  <advance width="691"/>
  <unicode hex="049F"/>
  <anchor x="291" y="0" name="bottom"/>
  <anchor x="400" y="547" name="top"/>
  <outline>
    <contour>
      <point x="34" y="583" type="line"/>
      <point x="449" y="583" type="line"/>
      <point x="471" y="693" type="line"/>
      <point x="56" y="693" type="line"/>
    </contour>
    <contour>
      <point x="376" y="0" type="line"/>
      <point x="638" y="0" type="line"/>
      <point x="474" y="337" type="line"/>
      <point x="287" y="251" type="line"/>
    </contour>
    <contour>
      <point x="-2" y="0" type="line"/>
      <point x="223" y="0" type="line"/>
      <point x="371" y="742" type="line"/>
      <point x="146" y="742" type="line"/>
    </contour>
    <contour>
      <point x="193" y="182" type="line"/>
      <point x="397" y="182" type="line"/>
      <point x="432" y="355" type="line"/>
      <point x="228" y="355" type="line"/>
    </contour>
    <contour>
      <point x="484" y="246" type="line"/>
      <point x="742" y="547" type="line"/>
      <point x="499" y="547" type="line"/>
      <point x="269" y="269" type="line"/>
    </contour>
  </outline>
</glyph>
<glyph name="dzeabkhasian-cy" format="2">
  <advance width="588"/>
  <unicode hex="04E1"/>
  <outline>
    <contour>
      <point x="178" y="-205" type="curve" smooth="yes"/>
      <point x="364" y="-205"/>
      <point x="531" y="-105"/>
      <point x="531" y="70" type="curve" smooth="yes"/>
      <point x="531" y="194"/>
      <point x="446" y="264"/>
      <point x="295" y="264" type="curve" smooth="yes"/>
      <point x="243" y="264" type="line"/>
      <point x="347" y="202" type="line"/>
      <point x="562" y="402" type="line"/>
      <point x="588" y="547" type="line"/>
      <point x="70" y="547" type="line"/>
      <point x="34" y="369" type="line"/>
      <point x="378" y="369" type="line"/>
      <point x="386" y="448" type="line"/>
      <point x="156" y="248" type="line"/>
      <point x="129" y="103" type="line"/>
      <point x="227" y="103" type="line" smooth="yes"/>
      <point x="275" y="103"/>
      <point x="298" y="83"/>
      <point x="298" y="51" type="curve" smooth="yes"/>
      <point x="298" y="5"/>
      <point x="251" y="-19"/>
      <point x="189" y="-19" type="curve" smooth="yes"/>
      <point x="134" y="-19"/>
      <point x="67" y="0"/>
      <point x="11" y="33" type="curve"/>
      <point x="-93" y="-131" type="line"/>
      <point x="-10" y="-181"/>
      <point x="86" y="-205"/>
    </contour>
  </outline>
</glyph>
<glyph name="elhook-cy" format="2">
  <advance width="707"/>
  <unicode hex="0513"/>
  <anchor x="368" y="0" name="bottomleft"/>
  <outline>
    <contour>
      <point x="605" y="30" type="curve" smooth="yes"/>
      <point x="708" y="547" type="line"/>
      <point x="186" y="547" type="line"/>
      <point x="131" y="309" type="line" smooth="yes"/>
      <point x="108" y="210"/>
      <point x="82" y="182"/>
      <point x="39" y="182" type="curve" smooth="yes"/>
      <point x="32" y="182"/>
      <point x="19" y="182"/>
      <point x="12" y="183" type="curve"/>
      <point x="-48" y="0" type="line"/>
      <point x="-16" y="-9"/>
      <point x="22" y="-14"/>
      <point x="68" y="-14" type="curve" smooth="yes"/>
      <point x="207" y="-14"/>
      <point x="275" y="82"/>
      <point x="327" y="300" type="curve" smooth="yes"/>
      <point x="356" y="421" type="line"/>
      <point x="300" y="371" type="line"/>
      <point x="496" y="371" type="line"/>
      <point x="457" y="418" type="line"/>
      <point x="379" y="30" type="line" smooth="yes"/>
      <point x="370" y="-15"/>
      <point x="347" y="-34"/>
      <point x="317" y="-34" type="curve" smooth="yes"/>
      <point x="302" y="-34"/>
      <point x="284" y="-29"/>
      <point x="271" y="-21" type="curve"/>
      <point x="186" y="-177" type="line"/>
      <point x="217" y="-195"/>
      <point x="267" y="-204"/>
      <point x="316" y="-204" type="curve" smooth="yes"/>
      <point x="471" y="-204"/>
      <point x="577" y="-111"/>
    </contour>
  </outline>
</glyph>
<glyph name="Germandbls" format="2">
  <advance width="798"/>
  <unicode hex="1E9E"/>
  <guideline x="314" y="308" angle="49.4672"/>
  <anchor x="354" y="0" name="bottom"/>
  <anchor x="494" y="700" name="top"/>
  <outline>
    <contour>
      <point x="456" y="-16" type="curve" smooth="yes"/>
      <point x="642" y="-16"/>
      <point x="760" y="91"/>
      <point x="760" y="234" type="curve" smooth="yes"/>
      <point x="760" y="352"/>
      <point x="661" y="433"/>
      <point x="530" y="433" type="curve" smooth="yes"/>
      <point x="511" y="433"/>
      <point x="486" y="430"/>
      <point x="464" y="425" type="curve"/>
      <point x="536" y="310" type="line"/>
      <point x="746" y="515" type="line"/>
      <point x="773" y="650" type="line"/>
      <point x="704" y="692"/>
      <point x="590" y="716"/>
      <point x="504" y="716" type="curve" smooth="yes"/>
      <point x="258" y="716"/>
      <point x="119" y="613"/>
      <point x="75" y="395" type="curve" smooth="yes"/>
      <point x="-4" y="0" type="line"/>
      <point x="232" y="0" type="line"/>
      <point x="309" y="387" type="line" smooth="yes"/>
      <point x="329" y="489"/>
      <point x="386" y="536"/>
      <point x="484" y="536" type="curve" smooth="yes"/>
      <point x="542" y="536"/>
      <point x="591" y="517"/>
      <point x="637" y="487" type="curve"/>
      <point x="652" y="635" type="line"/>
      <point x="373" y="365" type="line"/>
      <point x="394" y="269" type="line"/>
      <point x="412" y="275"/>
      <point x="432" y="278"/>
      <point x="451" y="278" type="curve" smooth="yes"/>
      <point x="496" y="278"/>
      <point x="522" y="257"/>
      <point x="522" y="224" type="curve" smooth="yes"/>
      <point x="522" y="188"/>
      <point x="493" y="164"/>
      <point x="445" y="164" type="curve" smooth="yes"/>
      <point x="403" y="164"/>
      <point x="369" y="172"/>
      <point x="348" y="180" type="curve"/>
      <point x="290" y="10" type="line"/>
      <point x="328" y="-5"/>
      <point x="397" y="-16"/>
    </contour>
  </outline>
</glyph>
<glyph name="quoteleft" format="2">
  <advance width="304"/>
  <unicode hex="2018"/>
  <outline>
    <contour>
      <point x="362" y="742" type="line"/>
      <point x="222" y="742" type="line"/>
      <point x="104" y="569" type="line" smooth="yes"/>
      <point x="69" y="518"/>
      <point x="57" y="490"/>
      <point x="57" y="453" type="curve" smooth="yes"/>
      <point x="57" y="382"/>
      <point x="106" y="334"/>
      <point x="180" y="334" type="curve" smooth="yes"/>
      <point x="259" y="334"/>
      <point x="322" y="389"/>
      <point x="322" y="473" type="curve" smooth="yes"/>
      <point x="322" y="542"/>
      <point x="271" y="592"/>
      <point x="198" y="592" type="curve"/>
      <point x="222" y="461" type="line"/>
    </contour>
  </outline>
</glyph>
<glyph name="manat" format="2">
  <advance width="904"/>
  <unicode hex="20BC"/>
  <outline>
    <contour>
      <point x="2" y="0" type="line"/>
      <point x="220" y="0" type="line"/>
      <point x="287" y="336" type="line" smooth="yes"/>
      <point x="311" y="455"/>
      <point x="379" y="511"/>
      <point x="492" y="511" type="curve" smooth="yes"/>
      <point x="614" y="511"/>
      <point x="662" y="443"/>
      <point x="639" y="326" type="curve" smooth="yes"/>
      <point x="574" y="0" type="line"/>
      <point x="792" y="0" type="line"/>
      <point x="857" y="327" type="line" smooth="yes"/>
      <point x="902" y="556"/>
      <point x="767" y="716"/>
      <point x="530" y="716" type="curve" smooth="yes"/>
      <point x="290" y="716"/>
      <point x="116" y="573"/>
      <point x="69" y="337" type="curve" smooth="yes"/>
    </contour>
    <contour>
      <point x="351" y="120" type="line"/>
      <point x="492" y="120" type="line"/>
      <point x="632" y="820" type="line"/>
      <point x="491" y="820" type="line"/>
    </contour>
  </outline>
</glyph>
<glyph name="ruble" format="2">
  <advance width="806"/>
  <unicode hex="20BD"/>
  <outline>
    <contour>
      <point x="65" y="0" type="line"/>
      <point x="301" y="0" type="line"/>
      <point x="366" y="325" type="line"/>
      <point x="241" y="224" type="line"/>
      <point x="467" y="224" type="line" smooth="yes"/>
      <point x="668" y="224"/>
      <point x="815" y="311"/>
      <point x="815" y="493" type="curve" smooth="yes"/>
      <point x="815" y="632"/>
      <point x="696" y="700"/>
      <point x="532" y="700" type="curve" smooth="yes"/>
      <point x="205" y="700" type="line"/>
    </contour>
    <contour>
      <point x="-13" y="60" type="line"/>
      <point x="523" y="60" type="line"/>
      <point x="545" y="172" type="line"/>
      <point x="9" y="172" type="line"/>
    </contour>
    <contour>
      <point x="361" y="299" type="line"/>
      <point x="426" y="625" type="line"/>
      <point x="300" y="518" type="line"/>
      <point x="500" y="518" type="line" smooth="yes"/>
      <point x="548" y="518"/>
      <point x="576" y="503"/>
      <point x="576" y="470" type="curve" smooth="yes"/>
      <point x="576" y="426"/>
      <point x="545" y="400"/>
      <point x="479" y="400" type="curve" smooth="yes"/>
      <point x="276" y="400" type="line"/>
    </contour>
  </outline>
</glyph>
<glyph name="bitcoin" format="2">
  <advance width="800"/>
  <unicode hex="20BF"/>
  <anchor x="342" y="0" name="bottom"/>
  <anchor x="482" y="700" name="top"/>
  <outline>
    <contour>
      <point x="168" y="82" type="line"/>
      <point x="128" y="-120" type="line"/>
      <point x="269" y="-120" type="line"/>
      <point x="309" y="82" type="line"/>
    </contour>
    <contour>
      <point x="408" y="82" type="line"/>
      <point x="368" y="-120" type="line"/>
      <point x="509" y="-120" type="line"/>
      <point x="549" y="82" type="line"/>
    </contour>
    <contour>
      <point x="418" y="623" type="line"/>
      <point x="457" y="820" type="line"/>
      <point x="316" y="820" type="line"/>
      <point x="277" y="623" type="line"/>
    </contour>
    <contour>
      <point x="658" y="623" type="line"/>
      <point x="697" y="820" type="line"/>
      <point x="556" y="820" type="line"/>
      <point x="517" y="623" type="line"/>
    </contour>
    <contour>
      <point x="17" y="0" type="line"/>
      <point x="421" y="0" type="line" smooth="yes"/>
      <point x="600" y="0"/>
      <point x="748" y="68"/>
      <point x="748" y="223" type="curve" smooth="yes"/>
      <point x="748" y="325"/>
      <point x="661" y="385"/>
      <point x="518" y="385" type="curve"/>
      <point x="488" y="331" type="line"/>
      <point x="658" y="331"/>
      <point x="779" y="403"/>
      <point x="779" y="533" type="curve" smooth="yes"/>
      <point x="779" y="639"/>
      <point x="694" y="700"/>
      <point x="528" y="700" type="curve" smooth="yes"/>
      <point x="157" y="700" type="line"/>
    </contour>
    <contour>
      <point x="282" y="165" type="line"/>
      <point x="356" y="535" type="line"/>
      <point x="471" y="535" type="line" smooth="yes"/>
      <point x="510" y="535"/>
      <point x="533" y="521"/>
      <point x="533" y="492" type="curve" smooth="yes"/>
      <point x="533" y="454"/>
      <point x="509" y="431"/>
      <point x="455" y="431" type="curve" smooth="yes"/>
      <point x="319" y="431" type="line"/>
      <point x="288" y="275" type="line"/>
      <point x="456" y="275" type="line" smooth="yes"/>
      <point x="487" y="275"/>
      <point x="514" y="260"/>
      <point x="514" y="229" type="curve" smooth="yes"/>
      <point x="514" y="186"/>
      <point x="480" y="165"/>
      <point x="434" y="165" type="curve" smooth="yes"/>
    </contour>
  </outline>
</glyph>
<glyph name="angstrom" format="2">
  <advance width="806"/>
  <unicode hex="212B"/>
  <anchor x="348" y="0" name="bottom"/>
  <anchor x="770" y="0" name="ogonek"/>
  <anchor x="545" y="983" name="top"/>
  <anchor x="206" y="701" name="topleft"/>
  <outline>
    <contour>
      <point x="-74" y="0" type="line"/>
      <point x="175" y="0" type="line"/>
      <point x="514" y="591" type="line"/>
      <point x="422" y="591" type="line"/>
      <point x="535" y="0" type="line"/>
      <point x="770" y="0" type="line"/>
      <point x="604" y="700" type="line"/>
      <point x="372" y="700" type="line"/>
    </contour>
    <contour>
      <point x="132" y="122" type="line"/>
      <point x="574" y="122" type="line"/>
      <point x="548" y="292" type="line"/>
      <point x="226" y="292" type="line"/>
    </contour>
    <contour>
      <point x="523" y="743" type="curve" smooth="yes"/>
      <point x="602" y="743"/>
      <point x="663" y="802"/>
      <point x="663" y="877" type="curve" smooth="yes"/>
      <point x="663" y="952"/>
      <point x="602" y="1011"/>
      <point x="523" y="1011" type="curve" smooth="yes"/>
      <point x="444" y="1011"/>
      <point x="383" y="952"/>
      <point x="383" y="877" type="curve" smooth="yes"/>
      <point x="383" y="802"/>
      <point x="444" y="743"/>
    </contour>
    <contour>
      <point x="523" y="823" type="curve" smooth="yes"/>
      <point x="493" y="823"/>
      <point x="469" y="845"/>
      <point x="469" y="877" type="curve" smooth="yes"/>
      <point x="469" y="909"/>
      <point x="493" y="931"/>
      <point x="523" y="931" type="curve" smooth="yes"/>
      <point x="553" y="931"/>
      <point x="577" y="909"/>
      <point x="577" y="877" type="curve" smooth="yes"/>
      <point x="577" y="845"/>
      <point x="553" y="823"/>
    </contour>
  </outline>
</glyph>
<glyph name="upDownArrow" format="2">
  <advance width="600"/>
  <unicode hex="2195"/>
  <outline>
    <contour>
      <point x="52" y="398" type="line"/>
      <point x="300" y="540" type="line"/>
      <point x="548" y="398" type="line"/>
      <point x="548" y="561" type="line"/>
      <point x="300" y="721" type="line"/>
      <point x="52" y="561" type="line"/>
    </contour>
    <contour>
      <point x="300" y="-10" type="line"/>
      <point x="548" y="150" type="line"/>
      <point x="548" y="313" type="line"/>
      <point x="300" y="171" type="line"/>
      <point x="52" y="313" type="line"/>
      <point x="52" y="150" type="line"/>
    </contour>
    <contour>
      <point x="214" y="154" type="line"/>
      <point x="386" y="154" type="line"/>
      <point x="386" y="567" type="line"/>
      <point x="214" y="567" type="line"/>
    </contour>
  </outline>
</glyph>
<glyph name="radical" format="2">
  <advance width="840"/>
  <unicode hex="221A"/>
  <outline>
    <contour>
      <point x="737" y="742" type="line"/>
      <point x="369" y="12" type="line"/>
      <point x="413" y="12" type="line"/>
      <point x="377" y="435" type="line"/>
      <point x="87" y="435" type="line"/>
      <point x="53" y="265" type="line"/>
      <point x="185" y="265" type="line"/>
      <point x="239" y="-194" type="line"/>
      <point x="473" y="-194" type="line"/>
      <point x="952" y="742" type="line"/>
    </contour>
  </outline>
</glyph>
<glyph name="integral" format="2">
  <advance width="476"/>
  <unicode hex="222B"/>
  <outline>
    <contour>
      <point x="16" y="-204" type="curve" smooth="yes"/>
      <point x="187" y="-204"/>
      <point x="272" y="-123"/>
      <point x="302" y="28" type="curve" smooth="yes"/>
      <point x="401" y="524" type="line" smooth="yes"/>
      <point x="409" y="568"/>
      <point x="435" y="587"/>
      <point x="462" y="587" type="curve" smooth="yes"/>
      <point x="480" y="587"/>
      <point x="495" y="582"/>
      <point x="509" y="574" type="curve"/>
      <point x="594" y="731" type="line"/>
      <point x="563" y="749"/>
      <point x="513" y="758"/>
      <point x="460" y="758" type="curve" smooth="yes"/>
      <point x="299" y="758"/>
      <point x="205" y="677"/>
      <point x="175" y="526" type="curve" smooth="yes"/>
      <point x="76" y="30" type="line" smooth="yes"/>
      <point x="67" y="-14"/>
      <point x="41" y="-33"/>
      <point x="14" y="-33" type="curve" smooth="yes"/>
      <point x="-4" y="-33"/>
      <point x="-19" y="-28"/>
      <point x="-32" y="-20" type="curve"/>
      <point x="-117" y="-177" type="line"/>
      <point x="-86" y="-195"/>
      <point x="-37" y="-204"/>
    </contour>
  </outline>
</glyph>
<glyph name="Adieresis.alt" format="2">
  <advance width="806"/>
  <outline>
    <contour>
      <point x="-74" y="0" type="line"/>
      <point x="175" y="0" type="line"/>
      <point x="514" y="591" type="line"/>
      <point x="422" y="591" type="line"/>
      <point x="535" y="0" type="line"/>
      <point x="770" y="0" type="line"/>
      <point x="604" y="700" type="line"/>
      <point x="372" y="700" type="line"/>
    </contour>
    <contour>
      <point x="132" y="122" type="line"/>
      <point x="574" y="122" type="line"/>
      <point x="548" y="292" type="line"/>
      <point x="226" y="292" type="line"/>
    </contour>
    <contour>
      <point x="172" y="523" type="curve" smooth="yes"/>
      <point x="227" y="523"/>
      <point x="271" y="563"/>
      <point x="271" y="623" type="curve" smooth="yes"/>
      <point x="271" y="667"/>
      <point x="238" y="700"/>
      <point x="186" y="700" type="curve" smooth="yes"/>
      <point x="131" y="700"/>
      <point x="87" y="661"/>
      <point x="87" y="601" type="curve" smooth="yes"/>
      <point x="87" y="556"/>
      <point x="121" y="523"/>
    </contour>
    <contour>
      <point x="754" y="523" type="curve" smooth="yes"/>
      <point x="809" y="523"/>
      <point x="853" y="563"/>
      <point x="853" y="623" type="curve" smooth="yes"/>
      <point x="853" y="667"/>
      <point x="820" y="700"/>
      <point x="768" y="700" type="curve" smooth="yes"/>
      <point x="713" y="700"/>
      <point x="669" y="661"/>
      <point x="669" y="601" type="curve" smooth="yes"/>
      <point x="669" y="556"/>
      <point x="703" y="523"/>
    </contour>
  </outline>
</glyph>
<glyph name="Aogonek.loclNAV" format="2">
  <advance width="806"/>
  <anchor x="488" y="700" name="top"/>
  <anchor x="206" y="700" name="topleft"/>
  <outline>
    <contour>
      <point x="-74" y="0" type="line"/>
      <point x="175" y="0" type="line"/>
      <point x="514" y="591" type="line"/>
      <point x="422" y="591" type="line"/>
      <point x="535" y="0" type="line"/>
      <point x="770" y="0" type="line"/>
      <point x="604" y="700" type="line"/>
      <point x="372" y="700" type="line"/>
    </contour>
    <contour>
      <point x="328" y="-240" type="curve" smooth="yes"/>
      <point x="371" y="-240"/>
      <point x="409" y="-230"/>
      <point x="436" y="-217" type="curve"/>
      <point x="427" y="-124" type="line"/>
      <point x="411" y="-131"/>
      <point x="389" y="-138"/>
      <point x="369" y="-138" type="curve" smooth="yes"/>
      <point x="335" y="-138"/>
      <point x="321" y="-120"/>
      <point x="321" y="-103" type="curve" smooth="yes"/>
      <point x="321" y="-75"/>
      <point x="361" y="-47"/>
      <point x="434" y="-29" type="curve"/>
      <point x="407" y="37" type="line"/>
      <point x="279" y="15"/>
      <point x="182" y="-54"/>
      <point x="182" y="-136" type="curve" smooth="yes"/>
      <point x="182" y="-200"/>
      <point x="240" y="-240"/>
    </contour>
    <contour>
      <point x="132" y="122" type="line"/>
      <point x="574" y="122" type="line"/>
      <point x="548" y="292" type="line"/>
      <point x="226" y="292" type="line"/>
    </contour>
  </outline>
</glyph>
<glyph name="Aogonek.loclNAV.ss01" format="2">
  <advance width="792"/>
  <anchor x="686" y="0" name="ogonek"/>
  <anchor x="477" y="700" name="top"/>
  <anchor x="136" y="700" name="topleft"/>
  <outline>
    <contour>
      <point x="-4" y="0" type="line"/>
      <point x="228" y="0" type="line"/>
      <point x="306" y="391" type="line" smooth="yes"/>
      <point x="325" y="486"/>
      <point x="371" y="525"/>
      <point x="439" y="525" type="curve" smooth="yes"/>
      <point x="511" y="525"/>
      <point x="546" y="480"/>
      <point x="526" y="381" type="curve" smooth="yes"/>
      <point x="450" y="0" type="line"/>
      <point x="686" y="0" type="line"/>
      <point x="759" y="365" type="line" smooth="yes"/>
      <point x="803" y="584"/>
      <point x="679" y="716"/>
      <point x="463" y="716" type="curve" smooth="yes"/>
      <point x="256" y="716"/>
      <point x="117" y="605"/>
      <point x="75" y="395" type="curve" smooth="yes"/>
    </contour>
    <contour>
      <point x="172" y="141" type="line"/>
      <point x="562" y="141" type="line"/>
      <point x="598" y="319" type="line"/>
      <point x="208" y="319" type="line"/>
    </contour>
    <contour>
      <point x="319" y="-240" type="curve" smooth="yes"/>
      <point x="362" y="-240"/>
      <point x="400" y="-230"/>
      <point x="427" y="-217" type="curve"/>
      <point x="418" y="-124" type="line"/>
      <point x="402" y="-131"/>
      <point x="380" y="-138"/>
      <point x="360" y="-138" type="curve" smooth="yes"/>
      <point x="326" y="-138"/>
      <point x="312" y="-120"/>
      <point x="312" y="-103" type="curve" smooth="yes"/>
      <point x="312" y="-75"/>
      <point x="352" y="-47"/>
      <point x="425" y="-29" type="curve"/>
      <point x="398" y="37" type="line"/>
      <point x="270" y="15"/>
      <point x="173" y="-54"/>
      <point x="173" y="-136" type="curve" smooth="yes"/>
      <point x="173" y="-200"/>
      <point x="231" y="-240"/>
    </contour>
  </outline>
</glyph>
<glyph name="Eogonek.loclNAV.ss01" format="2">
  <advance width="695"/>
  <anchor x="460" y="700" name="top"/>
  <anchor x="82" y="700" name="topleft"/>
  <outline>
    <contour>
      <point x="380" y="49" type="line"/>
      <point x="257" y="16"/>
      <point x="167" y="-44"/>
      <point x="167" y="-132" type="curve" smooth="yes"/>
      <point x="167" y="-200"/>
      <point x="225" y="-240"/>
      <point x="313" y="-240" type="curve" smooth="yes"/>
      <point x="356" y="-240"/>
      <point x="394" y="-230"/>
      <point x="421" y="-217" type="curve"/>
      <point x="412" y="-124" type="line"/>
      <point x="396" y="-131"/>
      <point x="374" y="-138"/>
      <point x="354" y="-138" type="curve" smooth="yes"/>
      <point x="323" y="-138"/>
      <point x="306" y="-122"/>
      <point x="306" y="-97" type="curve" smooth="yes"/>
      <point x="306" y="-59"/>
      <point x="343" y="-31"/>
      <point x="448" y="-10" type="curve" smooth="yes"/>
      <point x="515" y="3"/>
      <point x="601" y="21"/>
      <point x="651" y="48" type="curve"/>
      <point x="601" y="216" type="line"/>
      <point x="542" y="185"/>
      <point x="467" y="164"/>
      <point x="376" y="164" type="curve" smooth="yes"/>
      <point x="290" y="164"/>
      <point x="252" y="183"/>
      <point x="252" y="216" type="curve" smooth="yes"/>
      <point x="252" y="247"/>
      <point x="284" y="266"/>
      <point x="330" y="266" type="curve" smooth="yes"/>
      <point x="561" y="266" type="line"/>
      <point x="596" y="440" type="line"/>
      <point x="404" y="440" type="line" smooth="yes"/>
      <point x="354" y="440"/>
      <point x="334" y="453"/>
      <point x="334" y="477" type="curve" smooth="yes"/>
      <point x="334" y="511"/>
      <point x="372" y="536"/>
      <point x="463" y="536" type="curve" smooth="yes"/>
      <point x="518" y="536"/>
      <point x="594" y="527"/>
      <point x="660" y="498" type="curve"/>
      <point x="735" y="667" type="line"/>
      <point x="676" y="697"/>
      <point x="581" y="716"/>
      <point x="479" y="716" type="curve" smooth="yes"/>
      <point x="246" y="716"/>
      <point x="98" y="617"/>
      <point x="98" y="480" type="curve" smooth="yes"/>
      <point x="98" y="396"/>
      <point x="154" y="335"/>
      <point x="277" y="335" type="curve"/>
      <point x="282" y="387" type="line"/>
      <point x="126" y="387"/>
      <point x="10" y="309"/>
      <point x="10" y="185" type="curve" smooth="yes"/>
      <point x="10" y="56"/>
      <point x="134" y="-16"/>
      <point x="342" y="-16" type="curve" smooth="yes"/>
      <point x="367" y="-16"/>
      <point x="383" y="-15"/>
      <point x="393" y="-15" type="curve"/>
    </contour>
  </outline>
</glyph>
<glyph name="Hardsign-cy.ss01" format="2">
  <advance width="894"/>
  <outline>
    <contour>
      <point x="267" y="517" type="line"/>
      <point x="526" y="700" type="line"/>
      <point x="101" y="700" type="line"/>
      <point x="65" y="517" type="line"/>
    </contour>
    <contour>
      <point x="489" y="-16" type="curve" smooth="yes"/>
      <point x="715" y="-16"/>
      <point x="870" y="99"/>
      <point x="870" y="281" type="curve" smooth="yes"/>
      <point x="870" y="419"/>
      <point x="782" y="497"/>
      <point x="624" y="497" type="curve" smooth="yes"/>
      <point x="571" y="497"/>
      <point x="511" y="488"/>
      <point x="445" y="470" type="curve"/>
      <point x="418" y="299" type="line"/>
      <point x="471" y="319"/>
      <point x="512" y="328"/>
      <point x="546" y="328" type="curve" smooth="yes"/>
      <point x="600" y="328"/>
      <point x="628" y="303"/>
      <point x="628" y="256" type="curve" smooth="yes"/>
      <point x="628" y="198"/>
      <point x="583" y="159"/>
      <point x="515" y="159" type="curve" smooth="yes"/>
      <point x="450" y="159"/>
      <point x="423" y="195"/>
      <point x="436" y="261" type="curve" smooth="yes"/>
      <point x="523" y="700" type="line"/>
      <point x="291" y="700" type="line"/>
      <point x="207" y="278" type="line" smooth="yes"/>
      <point x="171" y="95"/>
      <point x="266" y="-16"/>
    </contour>
  </outline>
</glyph>
<glyph name="Udieresis.alt.BRACKET.133" format="2">
  <advance width="784"/>
  <outline>
    <contour>
      <point x="355" y="-16" type="curve" smooth="yes"/>
      <point x="570" y="-16"/>
      <point x="697" y="95"/>
      <point x="739" y="305" type="curve" smooth="yes"/>
      <point x="818" y="700" type="line"/>
      <point x="586" y="700" type="line"/>
      <point x="510" y="319" type="line" smooth="yes"/>
      <point x="489" y="214"/>
      <point x="452" y="175"/>
      <point x="384" y="175" type="curve" smooth="yes"/>
      <point x="310" y="175"/>
      <point x="276" y="220"/>
      <point x="296" y="319" type="curve" smooth="yes"/>
      <point x="372" y="700" type="line"/>
      <point x="136" y="700" type="line"/>
      <point x="59" y="315" type="line" smooth="yes"/>
      <point x="19" y="116"/>
      <point x="137" y="-16"/>
    </contour>
    <contour>
      <point x="421" y="362" type="curve" smooth="yes"/>
      <point x="473" y="362"/>
      <point x="514" y="399"/>
      <point x="514" y="456" type="curve" smooth="yes"/>
      <point x="514" y="497"/>
      <point x="483" y="528"/>
      <point x="434" y="528" type="curve" smooth="yes"/>
      <point x="383" y="528"/>
      <point x="342" y="491"/>
      <point x="342" y="435" type="curve" smooth="yes"/>
      <point x="342" y="393"/>
      <point x="374" y="362"/>
    </contour>
    <contour>
      <point x="458" y="544" type="curve" smooth="yes"/>
      <point x="510" y="544"/>
      <point x="551" y="581"/>
      <point x="551" y="638" type="curve" smooth="yes"/>
      <point x="551" y="679"/>
      <point x="520" y="710"/>
      <point x="471" y="710" type="curve" smooth="yes"/>
      <point x="420" y="710"/>
      <point x="379" y="673"/>
      <point x="379" y="617" type="curve" smooth="yes"/>
      <point x="379" y="575"/>
      <point x="411" y="544"/>
    </contour>
  </outline>
</glyph>
<glyph name="Udieresis.ss01.alt.BRACKET.133" format="2">
  <advance width="794"/>
  <outline>
    <contour>
      <point x="276" y="-16" type="curve" smooth="yes"/>
      <point x="370" y="-16"/>
      <point x="455" y="30"/>
      <point x="510" y="119" type="curve"/>
      <point x="486" y="164" type="line"/>
      <point x="453" y="0" type="line"/>
      <point x="682" y="0" type="line"/>
      <point x="822" y="700" type="line"/>
      <point x="586" y="700" type="line"/>
      <point x="508" y="310" type="line" smooth="yes"/>
      <point x="488" y="211"/>
      <point x="435" y="175"/>
      <point x="374" y="175" type="curve" smooth="yes"/>
      <point x="306" y="175"/>
      <point x="276" y="220"/>
      <point x="294" y="311" type="curve" smooth="yes"/>
      <point x="372" y="700" type="line"/>
      <point x="136" y="700" type="line"/>
      <point x="57" y="305" type="line" smooth="yes"/>
      <point x="17" y="105"/>
      <point x="99" y="-16"/>
    </contour>
    <contour>
      <point x="421" y="362" type="curve" smooth="yes"/>
      <point x="473" y="362"/>
      <point x="514" y="399"/>
      <point x="514" y="456" type="curve" smooth="yes"/>
      <point x="514" y="497"/>
      <point x="483" y="528"/>
      <point x="434" y="528" type="curve" smooth="yes"/>
      <point x="383" y="528"/>
      <point x="342" y="491"/>
      <point x="342" y="435" type="curve" smooth="yes"/>
      <point x="342" y="393"/>
      <point x="374" y="362"/>
    </contour>
    <contour>
      <point x="458" y="544" type="curve" smooth="yes"/>
      <point x="510" y="544"/>
      <point x="551" y="581"/>
      <point x="551" y="638" type="curve" smooth="yes"/>
      <point x="551" y="679"/>
      <point x="520" y="710"/>
      <point x="471" y="710" type="curve" smooth="yes"/>
      <point x="420" y="710"/>
      <point x="379" y="673"/>
      <point x="379" y="617" type="curve" smooth="yes"/>
      <point x="379" y="575"/>
      <point x="411" y="544"/>
    </contour>
  </outline>
</glyph>
<glyph name="Udieresis.ss01.alt" format="2">
  <advance width="794"/>
  <outline>
    <contour>
      <point x="276" y="-16" type="curve" smooth="yes"/>
      <point x="370" y="-16"/>
      <point x="455" y="30"/>
      <point x="510" y="119" type="curve"/>
      <point x="486" y="164" type="line"/>
      <point x="453" y="0" type="line"/>
      <point x="682" y="0" type="line"/>
      <point x="822" y="700" type="line"/>
      <point x="586" y="700" type="line"/>
      <point x="508" y="310" type="line" smooth="yes"/>
      <point x="488" y="211"/>
      <point x="435" y="175"/>
      <point x="374" y="175" type="curve" smooth="yes"/>
      <point x="306" y="175"/>
      <point x="276" y="220"/>
      <point x="294" y="311" type="curve" smooth="yes"/>
      <point x="372" y="700" type="line"/>
      <point x="136" y="700" type="line"/>
      <point x="57" y="305" type="line" smooth="yes"/>
      <point x="17" y="105"/>
      <point x="99" y="-16"/>
    </contour>
    <contour>
      <point x="385" y="533" type="curve" smooth="yes"/>
      <point x="440" y="533"/>
      <point x="484" y="573"/>
      <point x="484" y="633" type="curve" smooth="yes"/>
      <point x="484" y="677"/>
      <point x="451" y="710"/>
      <point x="399" y="710" type="curve" smooth="yes"/>
      <point x="344" y="710"/>
      <point x="300" y="671"/>
      <point x="300" y="611" type="curve" smooth="yes"/>
      <point x="300" y="566"/>
      <point x="334" y="533"/>
    </contour>
    <contour>
      <point x="527" y="533" type="curve" smooth="yes"/>
      <point x="582" y="533"/>
      <point x="626" y="573"/>
      <point x="626" y="633" type="curve" smooth="yes"/>
      <point x="626" y="677"/>
      <point x="593" y="710"/>
      <point x="541" y="710" type="curve" smooth="yes"/>
      <point x="486" y="710"/>
      <point x="442" y="671"/>
      <point x="442" y="611" type="curve" smooth="yes"/>
      <point x="442" y="566"/>
      <point x="476" y="533"/>
    </contour>
  </outline>
</glyph>
<glyph name="Z.ss01" format="2">
  <advance width="697"/>
  <anchor x="304" y="0" name="bottom"/>
  <anchor x="444" y="700" name="top"/>
  <outline>
    <contour>
      <point x="-18" y="0" type="line"/>
      <point x="625" y="0" type="line"/>
      <point x="661" y="178" type="line"/>
      <point x="226" y="178" type="line"/>
      <point x="247" y="111" type="line"/>
      <point x="723" y="571" type="line"/>
      <point x="749" y="700" type="line"/>
      <point x="132" y="700" type="line"/>
      <point x="98" y="523" type="line"/>
      <point x="507" y="523" type="line"/>
      <point x="484" y="589" type="line"/>
      <point x="8" y="130" type="line"/>
    </contour>
    <contour>
      <point x="87" y="277" type="line"/>
      <point x="278" y="277" type="line"/>
      <point x="338" y="273" type="line"/>
      <point x="616" y="273" type="line"/>
      <point x="648" y="433" type="line"/>
      <point x="480" y="433" type="line"/>
      <point x="420" y="437" type="line"/>
      <point x="119" y="437" type="line"/>
    </contour>
  </outline>
</glyph>
<glyph name="aogonek.loclNAV.sc" format="2">
  <advance width="702"/>
  <anchor x="412" y="582" name="top"/>
  <anchor x="167" y="582" name="topleft"/>
  <outline>
    <contour>
      <point x="-74" y="0" type="line"/>
      <point x="168" y="0" type="line"/>
      <point x="219" y="88" type="line"/>
      <point x="301" y="246" type="line"/>
      <point x="432" y="480" type="line"/>
      <point x="353" y="480" type="line"/>
      <point x="396" y="246" type="line"/>
      <point x="419" y="88" type="line"/>
      <point x="436" y="0" type="line"/>
      <point x="665" y="0" type="line"/>
      <point x="527" y="582" type="line"/>
      <point x="301" y="582" type="line"/>
    </contour>
    <contour>
      <point x="287" y="-240" type="curve" smooth="yes"/>
      <point x="330" y="-240"/>
      <point x="368" y="-230"/>
      <point x="395" y="-217" type="curve"/>
      <point x="386" y="-124" type="line"/>
      <point x="370" y="-131"/>
      <point x="348" y="-138"/>
      <point x="328" y="-138" type="curve" smooth="yes"/>
      <point x="294" y="-138"/>
      <point x="280" y="-120"/>
      <point x="280" y="-103" type="curve" smooth="yes"/>
      <point x="280" y="-75"/>
      <point x="320" y="-47"/>
      <point x="393" y="-29" type="curve"/>
      <point x="366" y="37" type="line"/>
      <point x="238" y="15"/>
      <point x="141" y="-54"/>
      <point x="141" y="-136" type="curve" smooth="yes"/>
      <point x="141" y="-200"/>
      <point x="199" y="-240"/>
    </contour>
    <contour>
      <point x="108" y="88" type="line"/>
      <point x="480" y="88" type="line"/>
      <point x="456" y="246" type="line"/>
      <point x="199" y="246" type="line"/>
    </contour>
  </outline>
</glyph>
<glyph name="aogonek.loclNAV.ss01" format="2">
  <advance width="761"/>
  <anchor x="405" y="547" name="top"/>
  <outline>
    <contour>
      <point x="277" y="-240" type="curve" smooth="yes"/>
      <point x="320" y="-240"/>
      <point x="358" y="-230"/>
      <point x="385" y="-217" type="curve"/>
      <point x="376" y="-124" type="line"/>
      <point x="360" y="-131"/>
      <point x="338" y="-138"/>
      <point x="317" y="-138" type="curve" smooth="yes"/>
      <point x="288" y="-138"/>
      <point x="270" y="-124"/>
      <point x="270" y="-91" type="curve" smooth="yes"/>
      <point x="270" y="-72"/>
      <point x="275" y="-44"/>
      <point x="354" y="11" type="curve" smooth="yes"/>
      <point x="437" y="68"/>
      <point x="479" y="157"/>
      <point x="493" y="275" type="curve" smooth="yes"/>
      <point x="513" y="428"/>
      <point x="487" y="557"/>
      <point x="321" y="557" type="curve" smooth="yes"/>
      <point x="151" y="557"/>
      <point x="20" y="423"/>
      <point x="20" y="245" type="curve" smooth="yes"/>
      <point x="20" y="78"/>
      <point x="136" y="-10"/>
      <point x="247" y="-10" type="curve" smooth="yes"/>
      <point x="259" y="-10"/>
      <point x="274" y="-9"/>
      <point x="288" y="-6" type="curve"/>
      <point x="314" y="88" type="line"/>
      <point x="216" y="12"/>
      <point x="131" y="-54"/>
      <point x="131" y="-133" type="curve" smooth="yes"/>
      <point x="131" y="-199"/>
      <point x="189" y="-240"/>
    </contour>
    <contour>
      <point x="329" y="168" type="curve" smooth="yes"/>
      <point x="279" y="168"/>
      <point x="249" y="201"/>
      <point x="249" y="259" type="curve" smooth="yes"/>
      <point x="249" y="322"/>
      <point x="284" y="379"/>
      <point x="349" y="379" type="curve" smooth="yes"/>
      <point x="399" y="379"/>
      <point x="429" y="346"/>
      <point x="429" y="288" type="curve" smooth="yes"/>
      <point x="429" y="225"/>
      <point x="394" y="168"/>
    </contour>
    <contour>
      <point x="597" y="-10" type="curve" smooth="yes"/>
      <point x="630" y="-10"/>
      <point x="661" y="-6"/>
      <point x="697" y="4" type="curve"/>
      <point x="721" y="169" type="line"/>
      <point x="711" y="164"/>
      <point x="695" y="161"/>
      <point x="682" y="161" type="curve" smooth="yes"/>
      <point x="651" y="161"/>
      <point x="631" y="176"/>
      <point x="640" y="222" type="curve" smooth="yes"/>
      <point x="705" y="547" type="line"/>
      <point x="479" y="547" type="line"/>
      <point x="464" y="472" type="line"/>
      <point x="435" y="274" type="line"/>
      <point x="422" y="202" type="line"/>
      <point x="416" y="172" type="line" smooth="yes"/>
      <point x="396" y="73"/>
      <point x="456" y="-10"/>
    </contour>
  </outline>
</glyph>
<glyph name="caroncomb.alt" format="2">
  <anchor x="386" y="700" name="_topright"/>
  <outline>
    <contour>
      <point x="354" y="540" type="line"/>
      <point x="482" y="540" type="line"/>
      <point x="554" y="750" type="line"/>
      <point x="396" y="750" type="line"/>
    </contour>
  </outline>
</glyph>
<glyph name="caroncomb.alt.short" format="2">
  <anchor x="394" y="742" name="_topright"/>
  <outline>
    <contour>
      <point x="358" y="561" type="line"/>
      <point x="486" y="561" type="line"/>
      <point x="548" y="771" type="line"/>
      <point x="400" y="771" type="line"/>
    </contour>
  </outline>
</glyph>
<glyph name="caroncomb.narrow" format="2">
  <anchor x="355" y="547" name="_top"/>
  <anchor x="396" y="750" name="top"/>
  <outline>
    <contour>
      <point x="273" y="607" type="line"/>
      <point x="461" y="607" type="line"/>
      <point x="590" y="767" type="line"/>
      <point x="445" y="767" type="line"/>
      <point x="311" y="637" type="line"/>
      <point x="423" y="637" type="line"/>
      <point x="327" y="767" type="line"/>
      <point x="192" y="767" type="line"/>
    </contour>
  </outline>
</glyph>
<glyph name="circumflexcomb.narrow" format="2">
  <anchor x="355" y="547" name="_top"/>
  <anchor x="396" y="750" name="top"/>
  <outline>
    <contour>
      <point x="168" y="607" type="line"/>
      <point x="313" y="607" type="line"/>
      <point x="447" y="737" type="line"/>
      <point x="335" y="737" type="line"/>
      <point x="431" y="607" type="line"/>
      <point x="566" y="607" type="line"/>
      <point x="485" y="767" type="line"/>
      <point x="297" y="767" type="line"/>
    </contour>
  </outline>
</glyph>
<glyph name="d.ss01" format="2">
  <advance width="765"/>
  <anchor x="327" y="0" name="bottom"/>
  <anchor x="565" y="640" name="center"/>
  <anchor x="821" y="742" name="topright"/>
  <outline>
    <contour>
      <point x="250" y="-10" type="curve" smooth="yes"/>
      <point x="419" y="-10"/>
      <point x="505" y="172"/>
      <point x="505" y="359" type="curve" smooth="yes"/>
      <point x="505" y="507"/>
      <point x="425" y="557"/>
      <point x="316" y="557" type="curve" smooth="yes"/>
      <point x="159" y="557"/>
      <point x="25" y="423"/>
      <point x="25" y="243" type="curve" smooth="yes"/>
      <point x="25" y="80"/>
      <point x="141" y="-10"/>
    </contour>
    <contour>
      <point x="335" y="168" type="curve" smooth="yes"/>
      <point x="284" y="168"/>
      <point x="254" y="203"/>
      <point x="254" y="254" type="curve" smooth="yes"/>
      <point x="254" y="330"/>
      <point x="294" y="379"/>
      <point x="353" y="379" type="curve" smooth="yes"/>
      <point x="404" y="379"/>
      <point x="434" y="344"/>
      <point x="434" y="293" type="curve" smooth="yes"/>
      <point x="434" y="217"/>
      <point x="394" y="168"/>
    </contour>
    <contour>
      <point x="601" y="-10" type="curve" smooth="yes"/>
      <point x="634" y="-10"/>
      <point x="665" y="-6"/>
      <point x="701" y="4" type="curve"/>
      <point x="725" y="169" type="line"/>
      <point x="715" y="164"/>
      <point x="699" y="161"/>
      <point x="686" y="161" type="curve" smooth="yes"/>
      <point x="655" y="161"/>
      <point x="635" y="178"/>
      <point x="644" y="222" type="curve" smooth="yes"/>
      <point x="748" y="742" type="line"/>
      <point x="522" y="742" type="line"/>
      <point x="455" y="368" type="line"/>
      <point x="458" y="306" type="line"/>
      <point x="431" y="234" type="line"/>
      <point x="427" y="212" type="line" smooth="yes"/>
      <point x="402" y="72"/>
      <point x="460" y="-10"/>
    </contour>
  </outline>
</glyph>
<glyph name="descender-cy.case.short" format="2">
  <advance width="367"/>
  <anchor x="-23" y="0" name="_bottomleft"/>
  <outline>
    <contour>
      <point x="16" y="-137" type="line"/>
      <point x="232" y="-137" type="line"/>
      <point x="296" y="183" type="line"/>
      <point x="13" y="183" type="line"/>
      <point x="-23" y="0" type="line"/>
      <point x="95" y="0" type="line"/>
      <point x="54" y="51" type="line"/>
    </contour>
  </outline>
</glyph>
<glyph name="dollar.BRACKET.170" format="2">
  <advance width="658"/>
  <outline>
    <contour>
      <point x="281" y="-16" type="curve" smooth="yes"/>
      <point x="499" y="-16"/>
      <point x="635" y="89"/>
      <point x="635" y="245" type="curve" smooth="yes"/>
      <point x="635" y="461"/>
      <point x="301" y="412"/>
      <point x="301" y="489" type="curve" smooth="yes"/>
      <point x="301" y="513"/>
      <point x="335" y="536"/>
      <point x="404" y="536" type="curve" smooth="yes"/>
      <point x="472" y="536"/>
      <point x="540" y="519"/>
      <point x="596" y="484" type="curve"/>
      <point x="681" y="655" type="line"/>
      <point x="616" y="694"/>
      <point x="523" y="716"/>
      <point x="419" y="716" type="curve" smooth="yes"/>
      <point x="198" y="716"/>
      <point x="65" y="612"/>
      <point x="65" y="453" type="curve" smooth="yes"/>
      <point x="65" y="236"/>
      <point x="398" y="279"/>
      <point x="398" y="205" type="curve" smooth="yes"/>
      <point x="398" y="180"/>
      <point x="366" y="164"/>
      <point x="305" y="164" type="curve" smooth="yes"/>
      <point x="227" y="164"/>
      <point x="147" y="184"/>
      <point x="69" y="229" type="curve"/>
      <point x="-22" y="57" type="line"/>
      <point x="45" y="14"/>
      <point x="156" y="-16"/>
    </contour>
    <contour>
      <point x="193" y="-120" type="line"/>
      <point x="334" y="-120" type="line"/>
      <point x="360" y="10" type="line"/>
      <point x="219" y="10" type="line"/>
    </contour>
    <contour>
      <point x="355" y="690" type="line"/>
      <point x="496" y="690" type="line"/>
      <point x="522" y="820" type="line"/>
      <point x="381" y="820" type="line"/>
    </contour>
  </outline>
</glyph>
<glyph name="eogonek.loclNAV.sc.ss01" format="2">
  <advance width="606"/>
  <anchor x="385" y="582" name="top"/>
  <anchor x="49" y="582" name="topleft"/>
  <outline>
    <contour>
      <point x="260" y="-240" type="curve" smooth="yes"/>
      <point x="303" y="-240"/>
      <point x="341" y="-230"/>
      <point x="368" y="-217" type="curve"/>
      <point x="359" y="-124" type="line"/>
      <point x="343" y="-131"/>
      <point x="321" y="-138"/>
      <point x="301" y="-138" type="curve" smooth="yes"/>
      <point x="270" y="-138"/>
      <point x="253" y="-122"/>
      <point x="253" y="-97" type="curve" smooth="yes"/>
      <point x="253" y="-65"/>
      <point x="279" y="-29"/>
      <point x="379" y="-13" type="curve" smooth="yes"/>
      <point x="447" y="-2"/>
      <point x="506" y="12"/>
      <point x="557" y="35" type="curve"/>
      <point x="510" y="193" type="line"/>
      <point x="460" y="169"/>
      <point x="396" y="152"/>
      <point x="326" y="152" type="curve" smooth="yes"/>
      <point x="258" y="152"/>
      <point x="232" y="168"/>
      <point x="232" y="189" type="curve" smooth="yes"/>
      <point x="232" y="205"/>
      <point x="248" y="214"/>
      <point x="273" y="214" type="curve" smooth="yes"/>
      <point x="478" y="214" type="line"/>
      <point x="509" y="372" type="line"/>
      <point x="341" y="372" type="line" smooth="yes"/>
      <point x="312" y="372"/>
      <point x="299" y="379"/>
      <point x="299" y="394" type="curve" smooth="yes"/>
      <point x="299" y="413"/>
      <point x="323" y="430"/>
      <point x="387" y="430" type="curve" smooth="yes"/>
      <point x="435" y="430"/>
      <point x="500" y="421"/>
      <point x="557" y="398" type="curve"/>
      <point x="629" y="557" type="line"/>
      <point x="579" y="581"/>
      <point x="497" y="597"/>
      <point x="407" y="597" type="curve" smooth="yes"/>
      <point x="200" y="597"/>
      <point x="69" y="512"/>
      <point x="69" y="397" type="curve" smooth="yes"/>
      <point x="69" y="329"/>
      <point x="115" y="277"/>
      <point x="222" y="277" type="curve"/>
      <point x="227" y="325" type="line"/>
      <point x="96" y="325"/>
      <point x="-4" y="261"/>
      <point x="-4" y="154" type="curve" smooth="yes"/>
      <point x="-4" y="47"/>
      <point x="96" y="-15"/>
      <point x="311" y="-15" type="curve" smooth="yes"/>
      <point x="313" y="-15"/>
      <point x="314" y="-15"/>
      <point x="333" y="-14" type="curve"/>
      <point x="317" y="49" type="line"/>
      <point x="204" y="16"/>
      <point x="114" y="-44"/>
      <point x="114" y="-132" type="curve" smooth="yes"/>
      <point x="114" y="-200"/>
      <point x="172" y="-240"/>
    </contour>
  </outline>
</glyph>
<glyph name="ii-cy.ss01" format="2">
  <advance width="693"/>
  <anchor x="284" y="0" name="bottom"/>
  <anchor x="372" y="0" name="bottomleft"/>
  <anchor x="631" y="0" name="bottomright"/>
  <anchor x="585" y="0" name="ogonek"/>
  <anchor x="394" y="547" name="top"/>
  <anchor x="581" y="547" name="topright"/>
  <outline>
    <contour>
      <point x="221" y="-10" type="curve" smooth="yes"/>
      <point x="295" y="-10"/>
      <point x="377" y="27"/>
      <point x="429" y="111" type="curve"/>
      <point x="403" y="153" type="line"/>
      <point x="372" y="0" type="line"/>
      <point x="585" y="0" type="line"/>
      <point x="694" y="547" type="line"/>
      <point x="468" y="547" type="line"/>
      <point x="415" y="284" type="line" smooth="yes"/>
      <point x="401" y="213"/>
      <point x="366" y="180"/>
      <point x="316" y="180" type="curve" smooth="yes"/>
      <point x="270" y="180"/>
      <point x="253" y="212"/>
      <point x="265" y="272" type="curve" smooth="yes"/>
      <point x="320" y="547" type="line"/>
      <point x="94" y="547" type="line"/>
      <point x="34" y="245" type="line" smooth="yes"/>
      <point x="0" y="75"/>
      <point x="88" y="-10"/>
    </contour>
  </outline>
</glyph>
<glyph name="m.sc.ss01" format="2">
  <advance width="1070"/>
  <anchor x="480" y="0" name="bottom"/>
  <anchor x="603" y="582" name="top"/>
  <outline>
    <contour>
      <point x="-3" y="0" type="line"/>
      <point x="227" y="0" type="line"/>
      <point x="298" y="336" type="line" smooth="yes"/>
      <point x="311" y="398"/>
      <point x="354" y="417"/>
      <point x="389" y="417" type="curve" smooth="yes"/>
      <point x="422" y="417"/>
      <point x="449" y="397"/>
      <point x="438" y="345" type="curve" smooth="yes"/>
      <point x="365" y="0" type="line"/>
      <point x="595" y="0" type="line"/>
      <point x="667" y="339" type="line" smooth="yes"/>
      <point x="680" y="399"/>
      <point x="714" y="417"/>
      <point x="752" y="417" type="curve" smooth="yes"/>
      <point x="787" y="417"/>
      <point x="817" y="397"/>
      <point x="806" y="345" type="curve" smooth="yes"/>
      <point x="733" y="0" type="line"/>
      <point x="963" y="0" type="line"/>
      <point x="1034" y="332" type="line" smooth="yes"/>
      <point x="1072" y="511"/>
      <point x="985" y="597"/>
      <point x="853" y="597" type="curve" smooth="yes"/>
      <point x="753" y="597"/>
      <point x="668" y="552"/>
      <point x="622" y="475" type="curve"/>
      <point x="684" y="463" type="line"/>
      <point x="671" y="551"/>
      <point x="598" y="597"/>
      <point x="510" y="597" type="curve" smooth="yes"/>
      <point x="416" y="597"/>
      <point x="352" y="559"/>
      <point x="307" y="482" type="curve"/>
      <point x="313" y="446" type="line"/>
      <point x="341" y="582" type="line"/>
      <point x="120" y="582" type="line"/>
    </contour>
  </outline>
</glyph>
<glyph name="n.sc" format="2">
  <advance width="710"/>
  <anchor x="300" y="0" name="bottom"/>
  <anchor x="416" y="582" name="top"/>
  <outline>
    <contour>
      <point x="-2" y="0" type="line"/>
      <point x="222" y="0" type="line"/>
      <point x="287" y="325" type="line"/>
      <point x="207" y="323" type="line"/>
      <point x="413" y="0" type="line"/>
      <point x="602" y="0" type="line"/>
      <point x="718" y="582" type="line"/>
      <point x="494" y="582" type="line"/>
      <point x="429" y="258" type="line"/>
      <point x="509" y="259" type="line"/>
      <point x="303" y="582" type="line"/>
      <point x="114" y="582" type="line"/>
    </contour>
  </outline>
</glyph>
<glyph name="nje-cy.ss01" format="2">
  <advance width="1009"/>
  <outline>
    <contour>
      <point x="-1" y="0" type="line"/>
      <point x="224" y="0" type="line"/>
      <point x="262" y="191" type="line"/>
      <point x="504" y="191" type="line"/>
      <point x="540" y="368" type="line"/>
      <point x="298" y="368" type="line"/>
      <point x="333" y="547" type="line"/>
      <point x="108" y="547" type="line"/>
    </contour>
    <contour>
      <point x="670" y="136" type="curve" smooth="yes"/>
      <point x="624" y="136"/>
      <point x="608" y="153"/>
      <point x="616" y="190" type="curve" smooth="yes"/>
      <point x="624" y="228" type="line"/>
      <point x="710" y="228" type="line" smooth="yes"/>
      <point x="735" y="228"/>
      <point x="745" y="217"/>
      <point x="745" y="192" type="curve" smooth="yes"/>
      <point x="745" y="155"/>
      <point x="720" y="136"/>
    </contour>
    <contour>
      <point x="644" y="-16" type="curve" smooth="yes"/>
      <point x="856" y="-16"/>
      <point x="980" y="67"/>
      <point x="980" y="207" type="curve" smooth="yes"/>
      <point x="980" y="314"/>
      <point x="910" y="368"/>
      <point x="771" y="368" type="curve" smooth="yes"/>
      <point x="652" y="368" type="line"/>
      <point x="687" y="547" type="line"/>
      <point x="463" y="547" type="line"/>
      <point x="393" y="198" type="line" smooth="yes"/>
      <point x="364" y="56"/>
      <point x="448" y="-16"/>
    </contour>
  </outline>
</glyph>
<glyph name="period.sc" format="2">
  <advance width="314"/>
  <outline>
    <contour>
      <point x="117" y="-10" type="curve" smooth="yes"/>
      <point x="202" y="-10"/>
      <point x="256" y="50"/>
      <point x="256" y="120" type="curve" smooth="yes"/>
      <point x="256" y="182"/>
      <point x="207" y="228"/>
      <point x="131" y="228" type="curve" smooth="yes"/>
      <point x="46" y="228"/>
      <point x="-8" y="172"/>
      <point x="-8" y="100" type="curve" smooth="yes"/>
      <point x="-8" y="38"/>
      <point x="45" y="-10"/>
    </contour>
  </outline>
</glyph>
<glyph name="softsign-cy.ss01" format="2">
  <advance width="640"/>
  <outline>
    <contour>
      <point x="283" y="-16" type="curve" smooth="yes"/>
      <point x="489" y="-16"/>
      <point x="613" y="79"/>
      <point x="613" y="236" type="curve" smooth="yes"/>
      <point x="613" y="352"/>
      <point x="547" y="410"/>
      <point x="414" y="410" type="curve" smooth="yes"/>
      <point x="364" y="410"/>
      <point x="319" y="402"/>
      <point x="288" y="386" type="curve"/>
      <point x="320" y="547" type="line"/>
      <point x="95" y="547" type="line"/>
      <point x="31" y="230" type="line" smooth="yes"/>
      <point x="-1" y="70"/>
      <point x="86" y="-16"/>
    </contour>
    <contour>
      <point x="302" y="136" type="curve" smooth="yes"/>
      <point x="260" y="136"/>
      <point x="243" y="159"/>
      <point x="251" y="200" type="curve" smooth="yes"/>
      <point x="259" y="241" type="line"/>
      <point x="278" y="256"/>
      <point x="305" y="265"/>
      <point x="331" y="265" type="curve" smooth="yes"/>
      <point x="365" y="265"/>
      <point x="382" y="248"/>
      <point x="382" y="213" type="curve" smooth="yes"/>
      <point x="382" y="167"/>
      <point x="350" y="136"/>
    </contour>
  </outline>
</glyph>
<glyph name="t.sc.ss01" format="2">
  <advance width="598"/>
  <anchor x="244" y="0" name="bottom"/>
  <anchor x="292" y="243" name="center"/>
  <anchor x="365" y="583" name="top"/>
  <outline>
    <contour>
      <point x="129" y="0" type="line"/>
      <point x="359" y="0" type="line"/>
      <point x="458" y="493" type="line"/>
      <point x="228" y="493" type="line"/>
    </contour>
    <contour>
      <point x="79" y="361" type="line"/>
      <point x="148" y="400"/>
      <point x="227" y="420"/>
      <point x="310" y="420" type="curve" smooth="yes"/>
      <point x="410" y="420"/>
      <point x="482" y="399"/>
      <point x="562" y="357" type="curve"/>
      <point x="660" y="517" type="line"/>
      <point x="579" y="567"/>
      <point x="465" y="597"/>
      <point x="346" y="597" type="curve" smooth="yes"/>
      <point x="234" y="597"/>
      <point x="106" y="571"/>
      <point x="23" y="521" type="curve"/>
    </contour>
  </outline>
</glyph>
<glyph name="udieresis.sc.alt" format="2">
  <advance width="693"/>
  <outline>
    <contour>
      <point x="307" y="-15" type="curve" smooth="yes"/>
      <point x="495" y="-15"/>
      <point x="606" y="79"/>
      <point x="641" y="255" type="curve" smooth="yes"/>
      <point x="706" y="582" type="line"/>
      <point x="480" y="582" type="line"/>
      <point x="417" y="268" type="line" smooth="yes"/>
      <point x="402" y="192"/>
      <point x="381" y="165"/>
      <point x="335" y="165" type="curve" smooth="yes"/>
      <point x="286" y="165"/>
      <point x="263" y="196"/>
      <point x="277" y="268" type="curve" smooth="yes"/>
      <point x="340" y="582" type="line"/>
      <point x="109" y="582" type="line"/>
      <point x="46" y="265" type="line" smooth="yes"/>
      <point x="13" y="98"/>
      <point x="116" y="-15"/>
    </contour>
    <contour>
      <point x="346" y="455" type="curve" smooth="yes"/>
      <point x="387" y="455"/>
      <point x="424" y="485"/>
      <point x="424" y="533" type="curve" smooth="yes"/>
      <point x="424" y="572"/>
      <point x="395" y="597"/>
      <point x="357" y="597" type="curve" smooth="yes"/>
      <point x="316" y="597"/>
      <point x="279" y="566"/>
      <point x="279" y="518" type="curve" smooth="yes"/>
      <point x="279" y="479"/>
      <point x="308" y="455"/>
    </contour>
    <contour>
      <point x="435" y="455" type="curve" smooth="yes"/>
      <point x="476" y="455"/>
      <point x="513" y="485"/>
      <point x="513" y="533" type="curve" smooth="yes"/>
      <point x="513" y="572"/>
      <point x="484" y="597"/>
      <point x="446" y="597" type="curve" smooth="yes"/>
      <point x="405" y="597"/>
      <point x="368" y="566"/>
      <point x="368" y="518" type="curve" smooth="yes"/>
      <point x="368" y="479"/>
      <point x="397" y="455"/>
    </contour>
  </outline>
</glyph>
<glyph name="udieresis.sc.ss01.alt.BRACKET.133" format="2">
  <advance width="701"/>
  <outline>
    <contour>
      <point x="228" y="-15" type="curve" smooth="yes"/>
      <point x="303" y="-15"/>
      <point x="373" y="22"/>
      <point x="419" y="92" type="curve"/>
      <point x="397" y="135" type="line"/>
      <point x="370" y="0" type="line"/>
      <point x="593" y="0" type="line"/>
      <point x="709" y="582" type="line"/>
      <point x="479" y="582" type="line"/>
      <point x="415" y="262" type="line" smooth="yes"/>
      <point x="400" y="189"/>
      <point x="364" y="165"/>
      <point x="325" y="165" type="curve" smooth="yes"/>
      <point x="280" y="165"/>
      <point x="262" y="197"/>
      <point x="275" y="261" type="curve" smooth="yes"/>
      <point x="339" y="582" type="line"/>
      <point x="109" y="582" type="line"/>
      <point x="44" y="255" type="line" smooth="yes"/>
      <point x="11" y="88"/>
      <point x="77" y="-15"/>
    </contour>
    <contour>
      <point x="372" y="361" type="curve" smooth="yes"/>
      <point x="403" y="361"/>
      <point x="431" y="384"/>
      <point x="431" y="420" type="curve" smooth="yes"/>
      <point x="431" y="450"/>
      <point x="409" y="469"/>
      <point x="380" y="469" type="curve" smooth="yes"/>
      <point x="349" y="469"/>
      <point x="321" y="445"/>
      <point x="321" y="409" type="curve" smooth="yes"/>
      <point x="321" y="379"/>
      <point x="343" y="361"/>
    </contour>
    <contour>
      <point x="398" y="489" type="curve" smooth="yes"/>
      <point x="429" y="489"/>
      <point x="457" y="512"/>
      <point x="457" y="548" type="curve" smooth="yes"/>
      <point x="457" y="578"/>
      <point x="435" y="597"/>
      <point x="406" y="597" type="curve" smooth="yes"/>
      <point x="375" y="597"/>
      <point x="347" y="573"/>
      <point x="347" y="537" type="curve" smooth="yes"/>
      <point x="347" y="507"/>
      <point x="369" y="489"/>
    </contour>
  </outline>
</glyph>
<glyph name="uogonek.loclNAV" format="2">
  <advance width="698"/>
  <anchor x="293" y="0" name="bottom"/>
  <anchor x="594" y="0" name="ogonek"/>
  <anchor x="403" y="547" name="top"/>
  <anchor x="590" y="547" name="topright"/>
  <outline>
    <contour>
      <point x="285" y="-240" type="curve" smooth="yes"/>
      <point x="329" y="-240"/>
      <point x="367" y="-230"/>
      <point x="394" y="-217" type="curve"/>
      <point x="385" y="-124" type="line"/>
      <point x="369" y="-131"/>
      <point x="347" y="-138"/>
      <point x="327" y="-138" type="curve" smooth="yes"/>
      <point x="292" y="-138"/>
      <point x="279" y="-118"/>
      <point x="279" y="-99" type="curve" smooth="yes"/>
      <point x="279" y="-64"/>
      <point x="321" y="-21"/>
      <point x="360" y="18" type="curve" smooth="yes"/>
      <point x="411" y="68"/>
      <point x="424" y="83"/>
      <point x="438" y="111" type="curve"/>
      <point x="412" y="153" type="line"/>
      <point x="381" y="0" type="line"/>
      <point x="594" y="0" type="line"/>
      <point x="703" y="547" type="line"/>
      <point x="477" y="547" type="line"/>
      <point x="424" y="284" type="line" smooth="yes"/>
      <point x="410" y="213"/>
      <point x="374" y="180"/>
      <point x="326" y="180" type="curve" smooth="yes"/>
      <point x="279" y="180"/>
      <point x="262" y="212"/>
      <point x="274" y="272" type="curve" smooth="yes"/>
      <point x="329" y="547" type="line"/>
      <point x="103" y="547" type="line"/>
      <point x="43" y="245" type="line" smooth="yes"/>
      <point x="9" y="75"/>
      <point x="99" y="-10"/>
      <point x="226" y="-10" type="curve" smooth="yes"/>
      <point x="275" y="-10"/>
      <point x="319" y="3"/>
      <point x="360" y="30" type="curve"/>
      <point x="347" y="75" type="line"/>
      <point x="201" y="-3"/>
      <point x="140" y="-51"/>
      <point x="140" y="-127" type="curve" smooth="yes"/>
      <point x="140" y="-201"/>
      <point x="198" y="-240"/>
    </contour>
  </outline>
</glyph>
<glyph name="uogonek.loclNAV.sc.ss01" format="2">
  <advance width="701"/>
  <anchor x="410" y="582" name="top"/>
  <anchor x="608" y="582" name="topright"/>
  <outline>
    <contour>
      <point x="271" y="-240" type="curve" smooth="yes"/>
      <point x="314" y="-240"/>
      <point x="352" y="-230"/>
      <point x="379" y="-217" type="curve"/>
      <point x="370" y="-124" type="line"/>
      <point x="354" y="-131"/>
      <point x="332" y="-138"/>
      <point x="312" y="-138" type="curve" smooth="yes"/>
      <point x="279" y="-138"/>
      <point x="264" y="-120"/>
      <point x="264" y="-98" type="curve" smooth="yes"/>
      <point x="264" y="-66"/>
      <point x="299" y="-29"/>
      <point x="343" y="8" type="curve" smooth="yes"/>
      <point x="374" y="34"/>
      <point x="404" y="64"/>
      <point x="419" y="92" type="curve"/>
      <point x="397" y="135" type="line"/>
      <point x="370" y="0" type="line"/>
      <point x="593" y="0" type="line"/>
      <point x="709" y="582" type="line"/>
      <point x="479" y="582" type="line"/>
      <point x="415" y="262" type="line" smooth="yes"/>
      <point x="400" y="189"/>
      <point x="365" y="165"/>
      <point x="325" y="165" type="curve" smooth="yes"/>
      <point x="280" y="165"/>
      <point x="262" y="197"/>
      <point x="275" y="261" type="curve" smooth="yes"/>
      <point x="339" y="582" type="line"/>
      <point x="109" y="582" type="line"/>
      <point x="46" y="265" type="line" smooth="yes"/>
      <point x="11" y="88"/>
      <point x="87" y="-15"/>
      <point x="228" y="-15" type="curve" smooth="yes"/>
      <point x="261" y="-15"/>
      <point x="293" y="-8"/>
      <point x="323" y="6" type="curve"/>
      <point x="328" y="66" type="line"/>
      <point x="215" y="16"/>
      <point x="125" y="-44"/>
      <point x="125" y="-132" type="curve" smooth="yes"/>
      <point x="125" y="-200"/>
      <point x="183" y="-240"/>
    </contour>
  </outline>
</glyph>
<glyph name="uogonek.loclNAV.ss01" format="2">
  <advance width="759"/>
  <anchor x="293" y="0" name="bottom"/>
  <anchor x="695" y="4" name="ogonek"/>
  <anchor x="403" y="547" name="top"/>
  <anchor x="590" y="547" name="topright"/>
  <outline>
    <contour>
      <point x="285" y="-240" type="curve" smooth="yes"/>
      <point x="329" y="-240"/>
      <point x="367" y="-230"/>
      <point x="394" y="-217" type="curve"/>
      <point x="385" y="-124" type="line"/>
      <point x="369" y="-131"/>
      <point x="347" y="-138"/>
      <point x="327" y="-138" type="curve" smooth="yes"/>
      <point x="292" y="-138"/>
      <point x="279" y="-118"/>
      <point x="279" y="-99" type="curve" smooth="yes"/>
      <point x="279" y="-64"/>
      <point x="321" y="-21"/>
      <point x="360" y="18" type="curve" smooth="yes"/>
      <point x="411" y="68"/>
      <point x="424" y="83"/>
      <point x="438" y="111" type="curve"/>
      <point x="409" y="144" type="line"/>
      <point x="407" y="59"/>
      <point x="467" y="-10"/>
      <point x="595" y="-10" type="curve" smooth="yes"/>
      <point x="628" y="-10"/>
      <point x="659" y="-6"/>
      <point x="695" y="4" type="curve"/>
      <point x="719" y="169" type="line"/>
      <point x="709" y="164"/>
      <point x="693" y="161"/>
      <point x="680" y="161" type="curve" smooth="yes"/>
      <point x="651" y="161"/>
      <point x="631" y="174"/>
      <point x="637" y="215" type="curve"/>
      <point x="703" y="547" type="line"/>
      <point x="477" y="547" type="line"/>
      <point x="424" y="284" type="line" smooth="yes"/>
      <point x="410" y="213"/>
      <point x="375" y="180"/>
      <point x="325" y="180" type="curve" smooth="yes"/>
      <point x="279" y="180"/>
      <point x="262" y="212"/>
      <point x="274" y="272" type="curve" smooth="yes"/>
      <point x="329" y="547" type="line"/>
      <point x="103" y="547" type="line"/>
      <point x="43" y="245" type="line" smooth="yes"/>
      <point x="9" y="75"/>
      <point x="99" y="-10"/>
      <point x="226" y="-10" type="curve" smooth="yes"/>
      <point x="275" y="-10"/>
      <point x="319" y="3"/>
      <point x="360" y="30" type="curve"/>
      <point x="347" y="75" type="line"/>
      <point x="201" y="-3"/>
      <point x="140" y="-51"/>
      <point x="140" y="-127" type="curve" smooth="yes"/>
      <point x="140" y="-201"/>
      <point x="198" y="-240"/>
    </contour>
  </outline>
</glyph>
<glyph name="won.BRACKET.130" format="2">
  <advance width="1311"/>
  <outline>
    <contour>
      <point x="221" y="0" type="line"/>
      <point x="474" y="0" type="line"/>
      <point x="735" y="484" type="line"/>
      <point x="667" y="484" type="line"/>
      <point x="726" y="0" type="line"/>
      <point x="979" y="0" type="line"/>
      <point x="1353" y="700" type="line"/>
      <point x="1118" y="700" type="line"/>
      <point x="801" y="109" type="line"/>
      <point x="924" y="109" type="line"/>
      <point x="853" y="700" type="line"/>
      <point x="630" y="700" type="line"/>
      <point x="310" y="109" type="line"/>
      <point x="438" y="109" type="line"/>
      <point x="365" y="700" type="line"/>
      <point x="127" y="700" type="line"/>
    </contour>
    <contour>
      <point x="21" y="225" type="line"/>
      <point x="315" y="225" type="line"/>
      <point x="299" y="337" type="line"/>
      <point x="43" y="337" type="line"/>
    </contour>
    <contour>
      <point x="49" y="363" type="line"/>
      <point x="297" y="363" type="line"/>
      <point x="281" y="475" type="line"/>
      <point x="71" y="475" type="line"/>
    </contour>
    <contour>
      <point x="993" y="225" type="line"/>
      <point x="1271" y="225" type="line"/>
      <point x="1293" y="337" type="line"/>
      <point x="1049" y="337" type="line"/>
    </contour>
    <contour>
      <point x="1062" y="363" type="line"/>
      <point x="1299" y="363" type="line"/>
      <point x="1321" y="475" type="line"/>
      <point x="1118" y="475" type="line"/>
    </contour>
  </outline>
</glyph>
<glyph name="y.sc" format="2">
  <advance width="638"/>
  <anchor x="263" y="0" name="bottom"/>
  <anchor x="380" y="582" name="top"/>
  <outline>
    <contour>
      <point x="148" y="0" type="line"/>
      <point x="378" y="0" type="line"/>
      <point x="432" y="263" type="line"/>
      <point x="354" y="130" type="line"/>
      <point x="717" y="582" type="line"/>
      <point x="487" y="582" type="line"/>
      <point x="247" y="287" type="line"/>
      <point x="393" y="287" type="line"/>
      <point x="277" y="582" type="line"/>
      <point x="46" y="582" type="line"/>
      <point x="227" y="130" type="line"/>
      <point x="202" y="263" type="line"/>
    </contour>
  </outline>
</glyph>
<glyph name="zero.tosf" format="2">
  <advance width="700"/>
  <outline>
    <contour>
      <point x="315" y="-16" type="curve" smooth="yes"/>
      <point x="528" y="-16"/>
      <point x="682" y="136"/>
      <point x="682" y="349" type="curve" smooth="yes"/>
      <point x="682" y="510"/>
      <point x="568" y="616"/>
      <point x="395" y="616" type="curve" smooth="yes"/>
      <point x="182" y="616"/>
      <point x="28" y="464"/>
      <point x="28" y="251" type="curve" smooth="yes"/>
      <point x="28" y="90"/>
      <point x="142" y="-16"/>
    </contour>
    <contour>
      <point x="337" y="167" type="curve" smooth="yes"/>
      <point x="288" y="167"/>
      <point x="260" y="203"/>
      <point x="260" y="264" type="curve" smooth="yes"/>
      <point x="260" y="360"/>
      <point x="308" y="433"/>
      <point x="373" y="433" type="curve" smooth="yes"/>
      <point x="422" y="433"/>
      <point x="450" y="397"/>
      <point x="450" y="336" type="curve" smooth="yes"/>
      <point x="450" y="240"/>
      <point x="402" y="167"/>
    </contour>
  </outline>
</glyph>
